<?xml version="1.0" encoding="utf-8"?>
<!-- Generator: Adobe Illustrator 26.0.2, SVG Export Plug-In . SVG Version: 6.00 Build 0)  -->
<svg version="1.1" id="圖層_1" xmlns="http://www.w3.org/2000/svg" xmlns:xlink="http://www.w3.org/1999/xlink" x="0px" y="0px"
	 viewBox="0 0 180 180" style="enable-background:new 0 0 180 180;" xml:space="preserve">
<style type="text/css">
	.st0{fill:#A180FF;}
	.st1{opacity:0.5;}
</style>
<g>
	<g>
		<g>
			<polygon class="st0" points="39.7,101.3 37.6,100 38.2,98.7 41,98.6 43.1,99.9 42.5,101.3 			"/>
			<polygon class="st0" points="116.9,99.1 114.7,97.8 115.1,96.6 117.7,96.4 119.9,97.7 119.5,99 			"/>
		</g>
		<g>
			<polygon class="st0" points="65.4,146.4 63.1,144.9 63.7,143.5 66.5,143.2 68.8,144.7 68.3,146.3 			"/>
			<polygon class="st0" points="146.7,142.6 144.3,141.3 144.8,139.8 147.6,139.7 149.9,141 149.5,142.5 			"/>
		</g>
	</g>
	<g class="st1">
		<path class="st0" d="M139.6,135.8c0,0.2,0,0.3,0,0.5C139.6,136.1,139.6,135.9,139.6,135.8z"/>
		<path class="st0" d="M47.6,107C47.6,107,47.6,106.9,47.6,107C47.6,106.9,47.6,107,47.6,107z"/>
		<path class="st0" d="M48,104.8c0.6,0,1.4-0.1,2.1-0.1l-0.3-0.5C49.1,104.2,48.4,104.4,48,104.8z"/>
		<path class="st0" d="M67.7,140.4c-0.5-0.2-1-0.5-1.5-0.8C66.6,139.9,67.1,140.1,67.7,140.4z"/>
		<polygon class="st0" points="47.8,107.6 47.8,107.6 64.5,137.8 		"/>
	</g>
	<polygon class="st0" points="60.8,42.2 59.8,40.8 57.4,42.1 53.8,39.9 57.3,37.9 59.7,39.4 60.7,37.9 59.1,36.9 61,35.8 60,34.3 
		58.2,35.3 58.2,33.6 56.4,33.7 56.5,36.4 52.8,38.5 52.8,34.4 55.3,33.2 54.5,31.6 52.8,32.4 52.8,30.2 51.1,30.2 51.1,32.4 
		49.5,31.6 48.7,33.2 51.1,34.4 51.1,38.4 47.6,36.4 47.7,33.7 45.9,33.6 45.8,35.3 44.1,34.3 43.1,35.8 45,36.9 43.3,37.9 
		44.3,39.4 46.7,37.9 50.3,39.9 46.6,42.1 44.3,40.8 43.3,42.2 44.8,43.2 43.1,44.2 44.1,45.7 45.7,44.7 45.8,46.6 47.6,46.5 
		47.5,43.7 51.1,41.6 51.1,45.9 48.7,47.1 49.5,48.7 51.1,47.9 51.1,49.9 52.8,49.9 52.8,47.9 54.5,48.7 55.3,47.1 52.8,45.9 
		52.8,41.5 56.6,43.7 56.4,46.5 58.2,46.6 58.3,44.7 60,45.7 61,44.2 59.2,43.2 	"/>
	<polygon class="st0" points="37.5,73.8 37.1,72.9 35.6,73.8 33.3,72.4 35.6,71.2 37,72 37.5,71.2 36.5,70.5 37.7,69.9 37.2,69.1 
		36,69.7 36,68.7 35,68.7 35.1,70.2 32.9,71.6 32.9,69.1 34.3,68.4 33.8,67.4 32.9,67.9 32.9,66.7 31.8,66.7 31.8,67.9 30.9,67.4 
		30.5,68.4 31.8,69.1 31.8,71.6 29.8,70.2 29.8,68.7 28.8,68.7 28.7,69.7 27.7,69.1 27.1,69.9 28.3,70.5 27.2,71.2 27.8,72 
		29.2,71.2 31.4,72.4 29.1,73.8 27.8,72.9 27.2,73.8 28.2,74.3 27.1,74.9 27.7,75.8 28.7,75.1 28.7,76.3 29.8,76.3 29.6,74.6 
		31.8,73.3 31.8,76 30.5,76.7 30.9,77.6 31.8,77.1 31.8,78.3 32.9,78.3 32.9,77 33.8,77.6 34.3,76.7 32.9,76 32.9,73.3 35.2,74.6 
		35.1,76.3 36,76.3 36.1,75.1 37.2,75.8 37.7,74.9 36.6,74.3 	"/>
	<g>
		<path class="st0" d="M79.6,125.4c-3.8-0.8-6.7-2.2-7-1.1c-0.2,1,2.6,2.5,6.5,3.3c3.8,0.8,7,0.7,7.2-0.3
			C86.6,126.2,83.3,126.2,79.6,125.4z"/>
		<path class="st0" d="M88.5,126.6c-0.4,0-0.8,0.4-0.8,0.8c0,0.4,0.3,0.8,0.8,0.8c0.4,0,0.8-0.4,0.8-0.8
			C89.2,127.1,88.9,126.6,88.5,126.6z"/>
	</g>
	<path class="st0" d="M93,100.2c-0.9,0.1-2.4,0.1-3.2,0.1l0.5-22.9l0,0l1-51.4l-10.4-0.2l-1,52.9l6.6,0.1L85.9,100
		c-1-0.1-2-0.2-2-0.3v-0.1c-1.7,1.5-2.5,3.4-2.3,5.4l0,0c0,1,0.4,2.1,1.1,2.9c0,0,0,0.1,0.1,0.1c0.2,0.2,0.4,0.4,0.6,0.5l0.1,0.1
		c0.2,0.2,0.4,0.3,0.7,0.4c0.1,0.1,0.3,0.2,0.4,0.2c0.1,0.1,0.3,0.1,0.4,0.2c0.3,0.1,0.6,0.2,0.9,0.3c0.1,0,0.1,0,0.2,0
		c0.3,0.1,0.7,0.1,1,0.2c0.1,0,0.3,0,0.4,0c0.1,0,0.2,0,0.3,0s0.2,0,0.3,0c1.6,0,3.2-0.4,4.4-1.5c0.6-0.5,0.9-1,1.3-1.8l0,0
		c0.1-0.2,0.2-0.4,0.2-0.6c0.1-0.2,0.1-0.4,0.2-0.7c0-0.1,0-0.3,0.1-0.4c0-0.1,0-0.2,0-0.3v-0.1C94.5,103.2,94,101.6,93,100.2z"/>
	<path class="st0" d="M139.1,134.7l-20.7-29.2c-1.1-1.7-3.9-3-6-2.9l-15.1,0.4c0.1,0.6,0.2,1.4,0.2,2c0,0.1,0,0.2,0,0.3
		c0,0.2,0,0.4-0.1,0.6c0,0.2,0,0.4-0.1,0.6c-0.1,0.4-0.2,0.7-0.3,1.1c-0.1,0.3-0.2,0.6-0.3,0.9v0.1c-0.5,1-1.1,2-2,2.7
		c-1.6,1.4-3.7,2.1-6.2,2.1c-0.1,0-0.3,0-0.4,0c-0.2,0-0.3,0-0.5,0c-0.2,0-0.3,0-0.5,0c-0.5,0-0.9-0.1-1.5-0.2l-0.2-0.1
		c-0.5-0.1-0.9-0.3-1.4-0.4c-0.2-0.1-0.4-0.1-0.5-0.2c-0.3-0.1-0.5-0.3-0.7-0.4c-0.3-0.2-0.6-0.4-0.9-0.6l-0.1-0.1l-0.3-0.5
		c-0.2-0.2-0.5-0.4-0.8-0.8l-0.2-0.2l-0.1-0.1c-1-1.4-1.7-2.9-1.7-4.7c0-0.6,0-1.1,0.1-1.8l-28.8,0.8c-2.1,0.1-3,1.7-2,3.4
		l16.7,30.2c0.9,1.8,3.4,3.1,5.5,3l67.4-3.1C139.5,137.6,140.3,136.2,139.1,134.7z M91.2,131.1c-12.3,0-22.4-3.8-22.4-8.4
		s10-8.4,22.4-8.4s22.4,3.8,22.4,8.4C113.5,127.4,103.6,131.1,91.2,131.1z"/>
	<g>
		<path class="st0" d="M128.7,92.2l-9.1-3.4l-23.9,0.6c-0.1,1-0.3,2.2-0.4,3.3l24.2-0.6l4.4,1.7l35.7,50.9l-2,2.2l-94.7,4.5
			l-4.8-1.9L28.5,96.2l2.4-1.9L83.5,93c-0.1-1-0.2-2.2-0.2-3.3l-56.8,1.5l-5,4l30.7,56.3l10.1,4.1l100.6-4.9l4.1-4.6L128.7,92.2z"/>
	</g>
	<path class="st0" d="M93,100.2L93,100.2c-0.7,0.1-1.7,0.1-2.5,0.1l0,0c-0.3,0-0.5,0-0.7,0l0,0l0,0l0.3-11.5l0.3-11.5l0,0l1-51.4
		l-5.2-0.1L81,25.7L80.3,61L80,78.7l3.3,0.1l3.3,0.1l0,0l0,0L86.5,86l-0.3,14.1c-0.6-0.1-1.3-0.1-1.7-0.2c-0.1,0-0.1,0-0.2,0
		c-0.1,0-0.2-0.1-0.2-0.1v-0.1c-1.7,1.5-2.5,3.4-2.3,5.4l0,0c0,1,0.4,2.1,1.1,2.9c0,0,0,0.1,0.1,0.1c0.2,0.2,0.4,0.4,0.6,0.5
		l0.1,0.1c0.2,0.2,0.4,0.3,0.7,0.4c0.1,0.1,0.3,0.2,0.4,0.2c0.1,0.1,0.3,0.1,0.4,0.2c0.3,0.1,0.6,0.2,0.9,0.3c0.1,0,0.1,0,0.2,0
		c0.3,0.1,0.7,0.1,1,0.2c0.1,0,0.3,0,0.4,0c0.1,0,0.2,0,0.3,0c0.1,0,0.2,0,0.3,0c1.6,0,3.2-0.4,4.4-1.5c0.6-0.5,0.9-1,1.3-1.8l0,0
		c0.1-0.2,0.2-0.4,0.2-0.6c0.1-0.2,0.1-0.4,0.2-0.7c0-0.1,0-0.3,0.1-0.4c0-0.1,0-0.2,0-0.3v-0.1C94.5,103.2,94,101.6,93,100.2z"/>
</g>
</svg>
