<svg version="1.1" id="圖層_1" xmlns="http://www.w3.org/2000/svg" x="0" y="0" viewBox="0 0 180 180" style="enable-background:new 0 0 180 180" xml:space="preserve"><style>.st0{fill:#a180ff}</style><path class="st0" d="M168.78 49.87H26.75l-5.12 5.12v70.05l5.12 5.08h142.03l5.12-5.12V54.99l-5.12-5.12zm-1.81 4.37 2.56 2.56v66.41l-2.56 2.56H28.55L26 123.23V56.8l2.56-2.56M18.04 75.41H9.6L6.1 78.9v22.22l3.5 3.47h8.44z"/><g><path d="M48.28 99.19c-.12 1.32.29 2.4 1.22 3.26.93.85 2.16 1.28 3.67 1.28 1.15 0 2.16-.12 3.04-.37a5.41 5.41 0 0 0 2.29-1.31c.65-.62 1.19-1.45 1.64-2.48.44-1.03.79-2.33 1.03-3.9l.55-3.58a22 22 0 0 1-4.82 2.19c-1.68.53-3.4.8-5.16.8-1.93 0-3.58-.3-4.96-.91-1.38-.61-2.48-1.43-3.31-2.48-.82-1.05-1.37-2.26-1.66-3.63-.28-1.37-.3-2.84-.06-4.41.3-1.96.86-3.77 1.69-5.42.83-1.66 1.92-3.08 3.27-4.27 1.35-1.19 2.99-2.12 4.91-2.78 1.92-.66 4.15-.99 6.7-.99 4.83 0 8.34 1.19 10.51 3.58s2.95 5.65 2.31 9.78l-1.98 12.93c-.63 4.13-2.4 7.39-5.31 9.78-2.91 2.39-6.77 3.58-11.61 3.58-3.85 0-6.88-.9-9.08-2.7-2.2-1.8-3.2-4.44-2.99-7.93h8.11zm14.63-14.85c.24-1.57.3-2.87.17-3.9-.13-1.03-.42-1.86-.88-2.48-.46-.62-1.09-1.06-1.89-1.31-.8-.25-1.78-.37-2.92-.37-2.13 0-3.82.62-5.08 1.87-1.26 1.25-2.06 2.99-2.4 5.24-.33 2.14.02 3.71 1.06 4.73 1.03 1.02 2.49 1.52 4.38 1.52 1.31 0 2.55-.32 3.71-.96 1.16-.64 2.34-1.37 3.53-2.19l.32-2.15zM79.19 83.53c.63-4.13 2.4-7.39 5.31-9.78 2.91-2.39 6.78-3.58 11.61-3.58 4.83 0 8.34 1.19 10.51 3.58s2.95 5.65 2.31 9.78l-1.98 12.93c-.63 4.13-2.4 7.39-5.31 9.78-2.91 2.39-6.77 3.58-11.61 3.58-4.83 0-8.34-1.19-10.51-3.58s-2.95-5.65-2.31-9.78l1.98-12.93zm6.26 12.13c-.24 1.57-.3 2.87-.17 3.9.13 1.03.42 1.86.88 2.48.46.62 1.09 1.06 1.89 1.31.8.25 1.78.37 2.92.37 1.15 0 2.16-.12 3.04-.37a5.41 5.41 0 0 0 2.29-1.31c.65-.62 1.19-1.45 1.64-2.48.44-1.03.79-2.33 1.03-3.9l1.74-11.33c.24-1.57.3-2.87.17-3.9-.13-1.03-.42-1.86-.88-2.48-.46-.62-1.09-1.06-1.89-1.31-.8-.25-1.78-.37-2.92-.37-1.15 0-2.16.12-3.04.37-.88.25-1.64.69-2.29 1.31-.65.62-1.2 1.45-1.64 2.48-.45 1.03-.79 2.33-1.03 3.9l-1.74 11.33zM115.04 86.51h4.04l.78 14.89h.06l5.41-14.89h4.2l.87 14.89h.06l5.31-14.89h4.07l-8.47 22.78h-4.2l-.8-15.59h-.06l-5.83 15.59h-4.16l-1.28-22.78zM141.74 109.29l3.49-22.78h3.98l-1.16 7.57c.77-.63 1.54-1.17 2.3-1.61.76-.44 1.55-.66 2.37-.66 1.22 0 2.09.34 2.61 1.01.52.67.65 1.81.41 3.41l-2 13.06h-3.98l1.93-12.62c.09-.57.05-1.03-.11-1.37s-.51-.52-1.06-.52c-.42 0-.88.16-1.37.49-.49.33-.98.68-1.46 1.06l-1.99 12.97h-3.96z"/><g><path class="st0" d="M48.28 99.19c-.12 1.32.29 2.4 1.22 3.26.93.85 2.16 1.28 3.67 1.28 1.15 0 2.16-.12 3.04-.37a5.41 5.41 0 0 0 2.29-1.31c.65-.62 1.19-1.45 1.64-2.48.44-1.03.79-2.33 1.03-3.9l.55-3.58a22 22 0 0 1-4.82 2.19c-1.68.53-3.4.8-5.16.8-1.93 0-3.58-.3-4.96-.91-1.38-.61-2.48-1.43-3.31-2.48-.82-1.05-1.37-2.26-1.66-3.63-.28-1.37-.3-2.84-.06-4.41.3-1.96.86-3.77 1.69-5.42.83-1.66 1.92-3.08 3.27-4.27 1.35-1.19 2.99-2.12 4.91-2.78 1.92-.66 4.15-.99 6.7-.99 4.83 0 8.34 1.19 10.51 3.58s2.95 5.65 2.31 9.78l-1.98 12.93c-.63 4.13-2.4 7.39-5.31 9.78-2.91 2.39-6.77 3.58-11.61 3.58-3.85 0-6.88-.9-9.08-2.7-2.2-1.8-3.2-4.44-2.99-7.93h8.11zm14.63-14.85c.24-1.57.3-2.87.17-3.9-.13-1.03-.42-1.86-.88-2.48-.46-.62-1.09-1.06-1.89-1.31-.8-.25-1.78-.37-2.92-.37-2.13 0-3.82.62-5.08 1.87-1.26 1.25-2.06 2.99-2.4 5.24-.33 2.14.02 3.71 1.06 4.73 1.03 1.02 2.49 1.52 4.38 1.52 1.31 0 2.55-.32 3.71-.96 1.16-.64 2.34-1.37 3.53-2.19l.32-2.15zM79.19 83.53c.63-4.13 2.4-7.39 5.31-9.78 2.91-2.39 6.78-3.58 11.61-3.58 4.83 0 8.34 1.19 10.51 3.58s2.95 5.65 2.31 9.78l-1.98 12.93c-.63 4.13-2.4 7.39-5.31 9.78-2.91 2.39-6.77 3.58-11.61 3.58-4.83 0-8.34-1.19-10.51-3.58s-2.95-5.65-2.31-9.78l1.98-12.93zm6.26 12.13c-.24 1.57-.3 2.87-.17 3.9.13 1.03.42 1.86.88 2.48.46.62 1.09 1.06 1.89 1.31.8.25 1.78.37 2.92.37 1.15 0 2.16-.12 3.04-.37a5.41 5.41 0 0 0 2.29-1.31c.65-.62 1.19-1.45 1.64-2.48.44-1.03.79-2.33 1.03-3.9l1.74-11.33c.24-1.57.3-2.87.17-3.9-.13-1.03-.42-1.86-.88-2.48-.46-.62-1.09-1.06-1.89-1.31-.8-.25-1.78-.37-2.92-.37-1.15 0-2.16.12-3.04.37-.88.25-1.64.69-2.29 1.31-.65.62-1.2 1.45-1.64 2.48-.45 1.03-.79 2.33-1.03 3.9l-1.74 11.33zM115.04 86.51h4.04l.78 14.89h.06l5.41-14.89h4.2l.87 14.89h.06l5.31-14.89h4.07l-8.47 22.78h-4.2l-.8-15.59h-.06l-5.83 15.59h-4.16l-1.28-22.78zM141.74 109.29l3.49-22.78h3.98l-1.16 7.57c.77-.63 1.54-1.17 2.3-1.61.76-.44 1.55-.66 2.37-.66 1.22 0 2.09.34 2.61 1.01.52.67.65 1.81.41 3.41l-2 13.06h-3.98l1.93-12.62c.09-.57.05-1.03-.11-1.37s-.51-.52-1.06-.52c-.42 0-.88.16-1.37.49-.49.33-.98.68-1.46 1.06l-1.99 12.97h-3.96z"/></g></g></svg>