<svg version="1.1" id="圖層_1" xmlns="http://www.w3.org/2000/svg" x="0" y="0" viewBox="0 0 180 180" style="enable-background:new 0 0 180 180" xml:space="preserve"><style>.st0{fill:#a180ff}</style><path class="st0" d="M34.67 99.86V39.15c0-2.86 2.33-5.19 5.19-5.19h98c2.86 0 5.19 2.33 5.19 5.19v60.71c1.73.72 3.28 1.79 4.57 3.12V39.15c0-5.39-4.37-9.76-9.76-9.76h-98c-5.39 0-9.76 4.37-9.76 9.76v63.83c1.29-1.33 2.84-2.4 4.57-3.12z"/><path class="st0" d="m133.38 141.59-.99-2.84H39.86c-3.28 0-5.95-2.67-5.95-5.95v-20.36c0-3.28 2.67-5.95 5.95-5.95h98c3.28 0 5.95 2.67 5.95 5.95v16.49c1.33-.28 2.7-.57 3.81-.8v-15.69c0-5.39-4.37-9.76-9.76-9.76h-98c-5.39 0-9.76 4.37-9.76 9.76v20.36c0 5.39 4.37 9.76 9.76 9.76h88.69c1.15-.44 2.68-.84 4.83-.97z"/><g><path class="st0" d="M161.71 153.25s-.76-2.15-1.15-3.36c-.39-1.21-1.11-1.52-1.11-1.52-.47-6.05-3.21-12.82-3.76-14.22-.55-1.4-1.21-2.32-2.29-2.99-1.08-.66-3-.23-3-.23s-4.97 1.05-7.73 1.65c-2.76.6-3.23-1.49-3.23-1.49s-2.89-6.14-3.54-7.54c-.65-1.4-2.1-2.55-3.76-1.87-1.66.68-.9 3.54-.9 3.54l6.86 19.79c-5.52-.53-7.98.44-9.19.98-1.21.55-2.71 1.7-2.31 3.21.4 1.52 1.65 1.28 3.91.99 2.26-.29 3.86.02 5.12.34 1.26.32 8.61 3.36 8.61 3.36-.48.63-.06 1.49-.06 1.49s.65 1.95 1.34 3.89c.69 1.94 3.02 1.19 3.02 1.19s11.3-3.96 12.59-4.42c1.27-.46.58-2.79.58-2.79zm-14.44 5.66-1.49-4.28 12.98-4.54 1.46 4.35-12.95 4.47z"/><path class="st0" d="M133.06 131.56c-4.05 0-7.34-3.29-7.34-7.34s3.29-7.34 7.34-7.34 7.34 3.29 7.34 7.34-3.29 7.34-7.34 7.34zm0-12.98c-3.11 0-5.63 2.53-5.63 5.63 0 3.11 2.53 5.63 5.63 5.63 3.11 0 5.63-2.53 5.63-5.63.01-3.1-2.52-5.63-5.63-5.63z"/></g></svg>