<svg version="1.1" id="圖層_1" xmlns="http://www.w3.org/2000/svg" x="0" y="0" viewBox="0 0 180 180" style="enable-background:new 0 0 180 180" xml:space="preserve"><style>.st0{fill:#a180ff}.st9{fill:#ffbb73}</style><path class="st0" d="M151.71 19.27H28.29l-9.02 9.02v123.48l9.02 8.96h123.43l9.02-9.02V28.29l-9.03-9.02zm1.33 129.26-4.52 4.51H31.46l-4.5-4.47V31.47l4.51-4.51h117.06l4.52 4.51v117.06z"/><path class="st0" d="M148.67 153.4H31.31l-4.71-4.68V31.32l4.72-4.72h117.35l4.72 4.72v117.35l-4.72 4.73zm-117.07-.71h116.78l4.31-4.31V31.62l-4.31-4.3H31.62l-4.31 4.3v116.81l4.29 4.26z"/><path class="st0" d="M145.06 149.5H34.93l-4.43-4.4V34.94l4.44-4.44h110.11l4.44 4.44v110.11l-4.43 4.45zm-109.84-.71h109.54l4.02-4.02V35.24l-4.02-4.03H35.24l-4.03 4.03V144.8l4.01 3.99z"/><path class="st0" d="m37.84 44.07-1.76-3.05 1.76-3.05h3.52l1.76 3.05-1.76 3.05zM138.64 44.07l-1.76-3.05 1.76-3.05h3.52l1.76 3.05-1.76 3.05zM37.84 143.13l-1.76-3.05 1.76-3.05h3.52l1.76 3.05-1.76 3.05zM138.64 143.13l-1.76-3.05 1.76-3.05h3.52l1.76 3.05-1.76 3.05zM30.95 99.37l.2-1.2 117.9-17.33-.18.99z"/><g><path class="st9" d="M72.44 128.52c-.72.82-1.48 1.48-2.28 1.97-.8.49-1.7.73-2.71.73-1.29 0-2.47-.17-3.56-.5-1.08-.33-2.01-.87-2.78-1.6s-1.38-1.69-1.82-2.88c-.44-1.19-.66-2.64-.66-4.37v-9.97c0-1.73.22-3.18.66-4.37.44-1.18 1.04-2.14 1.82-2.88s1.7-1.27 2.78-1.6c1.08-.33 2.27-.5 3.56-.5 2.73 0 4.82.78 6.26 2.34 1.44 1.56 2.22 3.94 2.32 7.13H70.7c0-1.8-.3-3.05-.89-3.73-.59-.68-1.38-1.02-2.36-1.02-1.08 0-1.93.27-2.55.81-.62.54-.93 1.58-.93 3.13v11.36c0 1.55.31 2.59.93 3.13.62.54 1.47.81 2.55.81 1 0 1.8-.34 2.38-1.02.58-.68.87-1.63.87-2.84v-1.7h-3.75v-4.41h9.08v14.3h-2.78l-.81-2.32zM80.9 130.84v-27.9h7.69c3.3 0 5.75.73 7.36 2.18 1.61 1.46 2.42 3.51 2.42 6.16 0 2.65-.81 4.71-2.42 6.16-1.61 1.46-4.06 2.18-7.36 2.18h-2.36v11.21H80.9zm5.33-15.61h2.86c2.63 0 3.94-1.31 3.94-3.94s-1.31-3.94-3.94-3.94h-2.86v7.88zM107.72 102.94v19.52c0 1.34.3 2.35.89 3.03.59.68 1.55 1.02 2.86 1.02 2.52 0 3.79-1.35 3.79-4.06v-19.52h5.33v19.55c0 1.55-.22 2.87-.66 3.96-.44 1.1-1.06 2-1.85 2.71-.8.71-1.76 1.23-2.88 1.57-1.12.33-2.36.5-3.73.5s-2.61-.17-3.73-.5c-1.12-.33-2.08-.86-2.88-1.57-.8-.71-1.41-1.61-1.84-2.71-.42-1.09-.64-2.42-.64-3.96v-19.55h5.34z"/><g><path class="st0" d="M72.44 128.52c-.72.82-1.48 1.48-2.28 1.97-.8.49-1.7.73-2.71.73-1.29 0-2.47-.17-3.56-.5-1.08-.33-2.01-.87-2.78-1.6s-1.38-1.69-1.82-2.88c-.44-1.19-.66-2.64-.66-4.37v-9.97c0-1.73.22-3.18.66-4.37.44-1.18 1.04-2.14 1.82-2.88s1.7-1.27 2.78-1.6c1.08-.33 2.27-.5 3.56-.5 2.73 0 4.82.78 6.26 2.34 1.44 1.56 2.22 3.94 2.32 7.13H70.7c0-1.8-.3-3.05-.89-3.73-.59-.68-1.38-1.02-2.36-1.02-1.08 0-1.93.27-2.55.81-.62.54-.93 1.58-.93 3.13v11.36c0 1.55.31 2.59.93 3.13.62.54 1.47.81 2.55.81 1 0 1.8-.34 2.38-1.02.58-.68.87-1.63.87-2.84v-1.7h-3.75v-4.41h9.08v14.3h-2.78l-.81-2.32zM80.9 130.84v-27.9h7.69c3.3 0 5.75.73 7.36 2.18 1.61 1.46 2.42 3.51 2.42 6.16 0 2.65-.81 4.71-2.42 6.16-1.61 1.46-4.06 2.18-7.36 2.18h-2.36v11.21H80.9zm5.33-15.61h2.86c2.63 0 3.94-1.31 3.94-3.94s-1.31-3.94-3.94-3.94h-2.86v7.88zM107.72 102.94v19.52c0 1.34.3 2.35.89 3.03.59.68 1.55 1.02 2.86 1.02 2.52 0 3.79-1.35 3.79-4.06v-19.52h5.33v19.55c0 1.55-.22 2.87-.66 3.96-.44 1.1-1.06 2-1.85 2.71-.8.71-1.76 1.23-2.88 1.57-1.12.33-2.36.5-3.73.5s-2.61-.17-3.73-.5c-1.12-.33-2.08-.86-2.88-1.57-.8-.71-1.41-1.61-1.84-2.71-.42-1.09-.64-2.42-.64-3.96v-19.55h5.34z"/></g></g><g><path class="st9" d="M63.97 68.9c0 1.55.31 2.59.93 3.13.62.54 1.47.81 2.55.81s1.93-.27 2.55-.81c.62-.54.93-1.58.93-3.13v-1.85h5.33v1.16c0 1.73-.22 3.18-.66 4.37-.44 1.19-1.04 2.14-1.82 2.88s-1.7 1.27-2.78 1.6c-1.08.33-2.27.5-3.56.5s-2.47-.17-3.56-.5c-1.08-.33-2.01-.87-2.78-1.6s-1.38-1.69-1.82-2.88c-.44-1.19-.66-2.64-.66-4.37v-9.97c0-1.73.22-3.18.66-4.37.44-1.18 1.04-2.14 1.82-2.88s1.7-1.27 2.78-1.6c1.08-.33 2.27-.5 3.56-.5s2.47.17 3.56.5c1.08.34 2.01.87 2.78 1.6s1.38 1.69 1.82 2.88c.44 1.19.66 2.64.66 4.37v.08h-5.33v-.77c0-1.55-.31-2.59-.93-3.13-.62-.54-1.47-.81-2.55-.81s-1.93.27-2.55.81c-.62.54-.93 1.58-.93 3.13V68.9zM80.9 77.17v-27.9h7.69c3.3 0 5.75.73 7.36 2.18 1.61 1.46 2.42 3.51 2.42 6.16 0 2.65-.81 4.71-2.42 6.16-1.61 1.46-4.06 2.18-7.36 2.18h-2.36v11.21H80.9zm5.33-15.61h2.86c2.63 0 3.94-1.31 3.94-3.94s-1.31-3.94-3.94-3.94h-2.86v7.88zM107.72 49.27v19.52c0 1.34.3 2.35.89 3.03.59.68 1.55 1.02 2.86 1.02 2.52 0 3.79-1.35 3.79-4.06V49.27h5.33v19.55c0 1.55-.22 2.87-.66 3.96-.44 1.1-1.06 2-1.85 2.71-.8.71-1.76 1.23-2.88 1.57-1.12.33-2.36.5-3.73.5s-2.61-.17-3.73-.5c-1.12-.33-2.08-.86-2.88-1.57-.8-.71-1.41-1.61-1.84-2.71-.42-1.09-.64-2.42-.64-3.96V49.27h5.34z"/><g><path class="st0" d="M63.97 68.9c0 1.55.31 2.59.93 3.13.62.54 1.47.81 2.55.81s1.93-.27 2.55-.81c.62-.54.93-1.58.93-3.13v-1.85h5.33v1.16c0 1.73-.22 3.18-.66 4.37-.44 1.19-1.04 2.14-1.82 2.88s-1.7 1.27-2.78 1.6c-1.08.33-2.27.5-3.56.5s-2.47-.17-3.56-.5c-1.08-.33-2.01-.87-2.78-1.6s-1.38-1.69-1.82-2.88c-.44-1.19-.66-2.64-.66-4.37v-9.97c0-1.73.22-3.18.66-4.37.44-1.18 1.04-2.14 1.82-2.88s1.7-1.27 2.78-1.6c1.08-.33 2.27-.5 3.56-.5s2.47.17 3.56.5c1.08.34 2.01.87 2.78 1.6s1.38 1.69 1.82 2.88c.44 1.19.66 2.64.66 4.37v.08h-5.33v-.77c0-1.55-.31-2.59-.93-3.13-.62-.54-1.47-.81-2.55-.81s-1.93.27-2.55.81c-.62.54-.93 1.58-.93 3.13V68.9zM80.9 77.17v-27.9h7.69c3.3 0 5.75.73 7.36 2.18 1.61 1.46 2.42 3.51 2.42 6.16 0 2.65-.81 4.71-2.42 6.16-1.61 1.46-4.06 2.18-7.36 2.18h-2.36v11.21H80.9zm5.33-15.61h2.86c2.63 0 3.94-1.31 3.94-3.94s-1.31-3.94-3.94-3.94h-2.86v7.88zM107.72 49.27v19.52c0 1.34.3 2.35.89 3.03.59.68 1.55 1.02 2.86 1.02 2.52 0 3.79-1.35 3.79-4.06V49.27h5.33v19.55c0 1.55-.22 2.87-.66 3.96-.44 1.1-1.06 2-1.85 2.71-.8.71-1.76 1.23-2.88 1.57-1.12.33-2.36.5-3.73.5s-2.61-.17-3.73-.5c-1.12-.33-2.08-.86-2.88-1.57-.8-.71-1.41-1.61-1.84-2.71-.42-1.09-.64-2.42-.64-3.96V49.27h5.34z"/></g></g></svg>