<svg version="1.1" id="圖層_1" xmlns="http://www.w3.org/2000/svg" xmlns:xlink="http://www.w3.org/1999/xlink" x="0" y="0" viewBox="0 0 180 180" style="enable-background:new 0 0 180 180" xml:space="preserve"><style>.st0{fill:#a180ff}</style><defs><path id="SVGID_14_" d="M41.11 72.37s2.39 17.69 12.33 22.62l3.3-2.2-2.9 11.8-11.35-2.93 3.36-2.15s-8.58-13.73-4.74-27.14z"/></defs><use xlink:href="#SVGID_14_" style="overflow:visible;fill:#a180ff"/><clipPath id="SVGID_7_"><use xlink:href="#SVGID_14_" style="overflow:visible"/></clipPath><path style="clip-path:url(#SVGID_7_);fill:#a180ff" d="m56.26 72.37.48 11.35v2.12l-19.47.81V72.37zM56.74 85.95l-19.47.81v-.11l19.47-.81z"/><path style="clip-path:url(#SVGID_7_);fill:#a180ff" d="m56.74 86.05-19.47.81v-.1l19.47-.81z"/><path style="clip-path:url(#SVGID_7_);fill:#a180ff" d="m56.74 86.16-19.47.81v-.11l19.47-.81z"/><path style="clip-path:url(#SVGID_7_);fill:#a180ff" d="m56.74 86.26-19.47.82v-.11l19.47-.81zM56.74 86.37l-19.47.81v-.1l19.47-.82z"/><path style="clip-path:url(#SVGID_7_);fill:#a180ff" d="m56.74 86.47-19.47.82v-.11l19.47-.81zM56.74 86.58l-19.47.81v-.1l19.47-.82z"/><path style="clip-path:url(#SVGID_7_);fill:#a180ff" d="m56.74 86.69-19.47.81v-.11l19.47-.81zM56.74 86.79l-19.47.81v-.1l19.47-.81z"/><path style="clip-path:url(#SVGID_7_);fill:#a180ff" d="m56.74 86.9-19.47.81v-.11l19.47-.81z"/><path style="clip-path:url(#SVGID_7_);fill:#a180ff" d="m56.74 87-19.47.82v-.11l19.47-.81zM56.74 87.11l-19.47.81v-.1L56.74 87z"/><path style="clip-path:url(#SVGID_7_);fill:#a180ff" d="m56.74 87.22-19.47.81v-.11l19.47-.81z"/><path style="clip-path:url(#SVGID_7_);fill:#a180ff" d="m56.74 87.32-19.47.81v-.1l19.47-.81zM56.74 87.43l-19.47.81v-.11l19.47-.81z"/><path style="clip-path:url(#SVGID_7_);fill:#a180ff" d="m56.74 87.53-19.47.82v-.11l19.47-.81zM56.74 87.64l-19.47.81v-.1l19.47-.82z"/><path style="clip-path:url(#SVGID_7_);fill:#a180ff" d="m56.74 87.75-19.47.81v-.11l19.47-.81z"/><path style="clip-path:url(#SVGID_7_);fill:#a180ff" d="m56.74 87.85-19.47.81v-.1l19.47-.81z"/><path style="clip-path:url(#SVGID_7_);fill:#a180ff" d="m56.74 87.96-19.47.81v-.11l19.47-.81zM56.74 88.06l-19.47.81v-.1l19.47-.81z"/><path style="clip-path:url(#SVGID_7_);fill:#a180ff" d="m56.74 88.17-19.47.81v-.11l19.47-.81z"/><path style="clip-path:url(#SVGID_7_);fill:#a180ff" d="m56.74 88.27-19.47.82v-.11l19.47-.81zM56.74 88.38l-19.47.81v-.1l19.47-.82z"/><path style="clip-path:url(#SVGID_7_);fill:#a180ff" d="m56.74 88.49-19.47.81v-.11l19.47-.81zM56.74 88.59l-19.47.81v-.1l19.47-.81z"/><path style="clip-path:url(#SVGID_7_);fill:#a180ff" d="m56.74 88.7-19.47.81v-.11l19.47-.81z"/><path style="clip-path:url(#SVGID_7_);fill:#a180ff" d="m56.74 88.8-19.47.82v-.11l19.47-.81zM56.74 88.91l-19.47.81v-.1l19.47-.82z"/><path style="clip-path:url(#SVGID_7_);fill:#a180ff" d="m56.74 89.02-19.47.81v-.11l19.47-.81zM56.74 89.12l-19.47.81v-.1l19.47-.81z"/><path style="clip-path:url(#SVGID_7_);fill:#a180ff" d="m56.74 89.23-19.47.81v-.11l19.47-.81z"/><path style="clip-path:url(#SVGID_7_);fill:#a180ff" d="m56.74 89.33-19.47.81v-.1l19.47-.81z"/><path style="clip-path:url(#SVGID_7_);fill:#a180ff" d="m56.74 89.44-19.47.81v-.11l19.47-.81z"/><path style="clip-path:url(#SVGID_7_);fill:#a180ff" d="m56.74 89.54-19.47.82v-.11l19.47-.81zM56.74 89.65l-19.47.81v-.1l19.47-.82z"/><path style="clip-path:url(#SVGID_7_);fill:#a180ff" d="m56.74 89.76-19.47.81v-.11l19.47-.81z"/><path style="clip-path:url(#SVGID_7_);fill:#a180ff" d="m56.74 89.86-19.47.81v-.1l19.47-.81z"/><path style="clip-path:url(#SVGID_7_);fill:#a180ff" d="m56.74 89.97-19.47.81v-.11l19.47-.81z"/><path style="clip-path:url(#SVGID_7_);fill:#a180ff" d="m56.74 90.07-19.47.82v-.11l19.47-.81zM56.74 90.18l-19.47.81v-.1l19.47-.82z"/><path style="clip-path:url(#SVGID_7_);fill:#a180ff" d="m56.74 90.29-19.47.81v-.11l19.47-.81z"/><path style="clip-path:url(#SVGID_7_);fill:#a180ff" d="m56.74 90.39-19.47.81v-.1l19.47-.81z"/><path style="clip-path:url(#SVGID_7_);fill:#a180ff" d="m56.74 90.5-19.47.81v-.11l19.47-.81z"/><path style="clip-path:url(#SVGID_7_);fill:#a180ff" d="m56.74 90.6-19.47.81v-.1l19.47-.81z"/><path style="clip-path:url(#SVGID_7_);fill:#a180ff" d="m56.74 90.71-19.47.81v-.11l19.47-.81z"/><path style="clip-path:url(#SVGID_7_);fill:#a180ff" d="m56.74 90.81-19.47.82v-.11l19.47-.81zM56.74 90.92l-19.47.81v-.1l19.47-.82z"/><path style="clip-path:url(#SVGID_7_);fill:#a180ff" d="m56.74 91.03-19.47.81v-.11l19.47-.81z"/><path style="clip-path:url(#SVGID_7_);fill:#a180ff" d="m56.74 91.13-19.47.81v-.1l19.47-.81z"/><path style="clip-path:url(#SVGID_7_);fill:#a180ff" d="m56.74 91.24-19.47.81v-.11l19.47-.81z"/><path style="clip-path:url(#SVGID_7_);fill:#a180ff" d="m56.74 91.34-19.47.82v-.11l19.47-.81zM56.74 91.45l-19.47.81v-.1l19.47-.82z"/><path style="clip-path:url(#SVGID_7_);fill:#a180ff" d="m56.74 91.56-19.47.81v-.11l19.47-.81z"/><path style="clip-path:url(#SVGID_7_);fill:#a180ff" d="m56.74 91.66-19.47.81v-.1l19.47-.81z"/><path style="clip-path:url(#SVGID_7_);fill:#a180ff" d="m56.74 91.77-19.47.81v-.11l19.47-.81zM56.74 91.87l-19.47.81v-.1l19.47-.81z"/><path style="clip-path:url(#SVGID_7_);fill:#a180ff" d="m56.74 91.98-19.47.81v-.11l19.47-.81z"/><path style="clip-path:url(#SVGID_7_);fill:#a180ff" d="m56.74 92.08-19.47.82v-.11l19.47-.81zM56.74 92.19 37.27 93v-.1l19.47-.82z"/><path style="clip-path:url(#SVGID_7_);fill:#a180ff" d="m56.74 92.3-19.47.81V93l19.47-.81zM56.74 92.4l-19.47.81v-.1l19.47-.81z"/><path style="clip-path:url(#SVGID_7_);fill:#a180ff" d="m56.74 92.51-19.47.81v-.11l19.47-.81z"/><path style="clip-path:url(#SVGID_7_);fill:#a180ff" d="m56.74 92.61-19.47.82v-.11l19.47-.81zM56.74 92.72l-19.47.81v-.1l19.47-.82z"/><path style="clip-path:url(#SVGID_7_);fill:#a180ff" d="m56.74 92.83-19.47.81v-.11l19.47-.81zM56.74 92.93l-19.47.81v-.1l19.47-.81z"/><path style="clip-path:url(#SVGID_7_);fill:#a180ff" d="m56.74 93.04-19.47.81v-.11l19.47-.81z"/><path style="clip-path:url(#SVGID_7_);fill:#a180ff" d="m56.74 93.14-19.47.81v-.1l19.47-.81z"/><path style="clip-path:url(#SVGID_7_);fill:#a180ff" d="m56.74 93.25-19.47.81v-.11l19.47-.81z"/><path style="clip-path:url(#SVGID_7_);fill:#a180ff" d="m56.74 93.35-19.47.82v-.11l19.47-.81zM56.74 93.46l-19.47.81v-.1l19.47-.82z"/><path style="clip-path:url(#SVGID_7_);fill:#a180ff" d="m56.74 93.57-19.47.81v-.11l19.47-.81zM56.74 93.67l-19.47.81v-.1l19.47-.81z"/><path style="clip-path:url(#SVGID_7_);fill:#a180ff" d="m56.74 93.78-19.47.81v-.11l19.47-.81z"/><path style="clip-path:url(#SVGID_7_);fill:#a180ff" d="m56.74 93.88-19.47.82v-.11l19.47-.81zM56.74 93.99l-19.47.81v-.1l19.47-.82z"/><path style="clip-path:url(#SVGID_7_);fill:#a180ff" d="m56.74 94.1-19.46.81-.01-.06v-.05l19.47-.81z"/><path transform="rotate(-2.39 47.015 94.568)" style="clip-path:url(#SVGID_7_);fill:#a180ff" d="M37.27 94.5h19.47v.11H37.27z"/><path transform="rotate(-2.39 47.016 94.671)" style="clip-path:url(#SVGID_7_);fill:#a180ff" d="M37.27 94.61h19.47v.11H37.27z"/><path style="clip-path:url(#SVGID_7_);fill:#a180ff" d="m56.74 94.41-19.45.81v-.1l19.45-.81zM56.74 94.52l-19.45.81v-.11l19.45-.81z"/><path transform="rotate(-2.39 47.019 94.983)" style="clip-path:url(#SVGID_7_);fill:#a180ff" d="M37.29 94.92h19.46v.11H37.29z"/><path style="clip-path:url(#SVGID_7_);fill:#a180ff" d="m56.74 94.73-19.44.81v-.1l19.44-.82z"/><path transform="rotate(-2.39 47.026 95.2)" style="clip-path:url(#SVGID_7_);fill:#a180ff" d="M37.3 95.14h19.45v.11H37.3z"/><path style="clip-path:url(#SVGID_7_);fill:#a180ff" d="m56.74 94.94-19.43.81v-.1l19.43-.81z"/><path transform="rotate(-2.39 47.043 95.432)" style="clip-path:url(#SVGID_7_);fill:#a180ff" d="M37.31 95.35h19.44v.11H37.31z"/><path transform="rotate(-2.39 47.02 95.492)" style="clip-path:url(#SVGID_7_);fill:#a180ff" d="M37.31 95.45h19.43v.11H37.31z"/><path style="clip-path:url(#SVGID_7_);fill:#a180ff" d="m56.74 95.26-19.42.81v-.11l19.42-.81zM56.74 95.36l-19.41.81-.01-.1 19.42-.81z"/><path transform="rotate(-2.39 47.03 95.813)" style="clip-path:url(#SVGID_7_);fill:#a180ff" d="M37.32 95.77h19.42v.11H37.32z"/><path style="clip-path:url(#SVGID_7_);fill:#a180ff" d="m56.74 95.58-19.4.81-.01-.11 19.41-.81z"/><path transform="rotate(-2.39 47.038 96.034)" style="clip-path:url(#SVGID_7_);fill:#a180ff" d="M37.33 95.98h19.41v.11H37.33z"/><path transform="rotate(-2.39 47.02 96.1)" style="clip-path:url(#SVGID_7_);fill:#a180ff" d="M37.34 96.09h19.41v.11H37.34z"/><path transform="rotate(-2.39 47.07 96.298)" style="clip-path:url(#SVGID_7_);fill:#a180ff" d="M37.34 96.19h19.4v.11h-19.4z"/><path style="clip-path:url(#SVGID_7_);fill:#a180ff" d="m56.74 96-19.38.81-.01-.11 19.39-.81z"/><path transform="rotate(-2.39 47.06 96.483)" style="clip-path:url(#SVGID_7_);fill:#a180ff" d="M37.35 96.4h19.4v.11h-19.4z"/><path style="clip-path:url(#SVGID_7_);fill:#a180ff" d="m56.74 96.21-19.38.81v-.11l19.38-.8zM56.74 96.32l-19.37.81-.01-.11 19.38-.81z"/><path transform="rotate(-2.39 47.053 96.773)" style="clip-path:url(#SVGID_7_);fill:#a180ff" d="M37.36 96.72h19.38v.11H37.36z"/><path style="clip-path:url(#SVGID_7_);fill:#a180ff" d="m56.74 96.53-19.36.81-.01-.11 19.37-.81z"/><path style="clip-path:url(#SVGID_7_);fill:#a180ff" d="m56.74 96.63-19.36.81v-.1l19.36-.81z"/><path transform="rotate(-2.39 47.061 97.094)" style="clip-path:url(#SVGID_7_);fill:#a180ff" d="M37.38 97.04h19.37v.11H37.38z"/><path transform="rotate(-2.39 47.057 97.185)" style="clip-path:url(#SVGID_7_);fill:#a180ff" d="M37.38 97.14h19.36v.11H37.38z"/><path transform="rotate(-2.39 47.09 97.352)" style="clip-path:url(#SVGID_7_);fill:#a180ff" d="M37.38 97.25h19.36v.11H37.38z"/><path transform="rotate(-2.39 47.053 97.382)" style="clip-path:url(#SVGID_7_);fill:#a180ff" d="M37.39 97.36h19.36v.11H37.39z"/><path transform="rotate(-2.39 47.067 97.51)" style="clip-path:url(#SVGID_7_);fill:#a180ff" d="M37.39 97.46h19.35v.11H37.39z"/><path transform="rotate(-2.39 47.067 97.615)" style="clip-path:url(#SVGID_7_);fill:#a180ff" d="M37.4 97.57h19.35v.11H37.4z"/><path style="clip-path:url(#SVGID_7_);fill:#a180ff" d="m56.74 97.38-19.33.8v-.1l19.33-.81zM56.74 97.48l-19.32.81-.01-.11 19.33-.8z"/><path style="clip-path:url(#SVGID_7_);fill:#a180ff" d="m56.74 97.59-19.32.8v-.1l19.32-.81zM56.74 97.69l-19.31.81-.01-.11 19.32-.8z"/><path transform="rotate(-2.39 47.087 98.157)" style="clip-path:url(#SVGID_7_);fill:#a180ff" d="M37.42 98.1h19.32v.11H37.42z"/><path style="clip-path:url(#SVGID_7_);fill:#a180ff" d="m56.74 97.91-19.3.8-.01-.1 19.31-.81zM56.74 98.01l-19.3.81v-.11l19.3-.8z"/><path transform="rotate(-2.39 47.09 98.47)" style="clip-path:url(#SVGID_7_);fill:#a180ff" d="M37.43 98.41h19.31v.11H37.43z"/><path style="clip-path:url(#SVGID_7_);fill:#a180ff" d="m56.74 98.22-19.29.81-.01-.11 19.3-.8z"/><path style="clip-path:url(#SVGID_7_);fill:#a180ff" d="m56.74 98.33-19.29.8v-.1l19.29-.81zM56.74 98.43l-19.28.81-.01-.11 19.29-.8z"/><path style="clip-path:url(#SVGID_7_);fill:#a180ff" d="m56.74 98.54-19.28.8v-.1l19.28-.81zM56.74 98.65l-19.27.8-.01-.11 19.28-.8z"/><path style="clip-path:url(#SVGID_7_);fill:#a180ff" d="m56.74 98.75-19.27.81v-.11l19.27-.8z"/><path style="clip-path:url(#SVGID_7_);fill:#a180ff" d="m56.74 98.86-19.27.8v-.1l19.27-.81z"/><path transform="rotate(-2.39 47.08 99.263)" style="clip-path:url(#SVGID_7_);fill:#a180ff" d="M37.47 99.26h19.28v.11H37.47z"/><path transform="rotate(-2.39 47.143 99.49)" style="clip-path:url(#SVGID_7_);fill:#a180ff" d="M37.47 99.37h19.27v.11H37.47z"/><path style="clip-path:url(#SVGID_7_);fill:#a180ff" d="m56.74 99.18-19.25.8-.01-.11 19.26-.8z"/><path transform="rotate(-2.39 47.109 99.623)" style="clip-path:url(#SVGID_7_);fill:#a180ff" d="M37.48 99.58h19.26v.11H37.48z"/><path transform="rotate(-2.39 47.141 99.79)" style="clip-path:url(#SVGID_7_);fill:#a180ff" d="M37.49 99.68h19.26v.11H37.49z"/><path style="clip-path:url(#SVGID_7_);fill:#a180ff" d="m56.74 99.49-19.24.81v-.11l19.24-.8z"/><path transform="rotate(-2.39 47.137 99.986)" style="clip-path:url(#SVGID_7_);fill:#a180ff" d="M37.5 99.89h19.25v.11H37.5z"/><path style="clip-path:url(#SVGID_7_);fill:#a180ff" d="m56.74 99.7-19.23.81v-.11l19.23-.8z"/><path transform="rotate(-2.39 47.115 100.141)" style="clip-path:url(#SVGID_7_);fill:#a180ff" d="M37.5 100.11h19.24v.11H37.5z"/><path transform="rotate(-2.39 47.154 100.32)" style="clip-path:url(#SVGID_7_);fill:#a180ff" d="M37.51 100.21h19.24v.11H37.51z"/><path style="clip-path:url(#SVGID_7_);fill:#a180ff" d="m37.68 104.59-.16-3.87 19.22-.8v4.67z"/><g><defs><path id="SVGID_3_" d="M135.24 130.64s17.42 3.94 21.45 14.27l-2.48 3.09 12-1.85-1.92-11.57-2.44 3.15c0 .02-12.92-9.72-26.61-7.09z"/></defs><use xlink:href="#SVGID_3_" style="overflow:visible;fill:#a180ff"/><clipPath id="SVGID_8_"><use xlink:href="#SVGID_3_" style="overflow:visible"/></clipPath><path style="clip-path:url(#SVGID_8_);fill:#a180ff" d="m136.76 128.01-1.52 2.63v-2.63zM136.96 128.01l-1.72 2.98v-.35l1.52-2.63zM137.16 128.01l-1.92 3.33v-.35l1.72-2.98z"/><path style="clip-path:url(#SVGID_8_);fill:#a180ff" d="m137.36 128.01-2.12 3.67v-.34l1.92-3.33zM137.56 128.01l-2.32 4.02v-.35l2.12-3.67z"/><path style="clip-path:url(#SVGID_8_);fill:#a180ff" d="m137.76 128.01-2.52 4.37v-.35l2.32-4.02zM137.96 128.01l-2.72 4.72v-.35l2.52-4.37z"/><path style="clip-path:url(#SVGID_8_);fill:#a180ff" d="m138.16 128.01-2.92 5.06v-.34l2.72-4.72z"/><path style="clip-path:url(#SVGID_8_);fill:#a180ff" d="m138.36 128.01-3.12 5.41v-.35l2.92-5.06z"/><path style="clip-path:url(#SVGID_8_);fill:#a180ff" d="m138.56 128.01-3.32 5.76v-.35l3.12-5.41z"/><path style="clip-path:url(#SVGID_8_);fill:#a180ff" d="m138.76 128.01-3.52 6.1v-.34l3.32-5.76zM138.96 128.01l-3.72 6.45v-.35l3.52-6.1zM139.16 128.01l-3.92 6.8v-.35l3.72-6.45z"/><path style="clip-path:url(#SVGID_8_);fill:#a180ff" d="m139.36 128.01-4.12 7.14v-.34l3.92-6.8zM139.56 128.01l-4.32 7.49v-.35l4.12-7.14z"/><path style="clip-path:url(#SVGID_8_);fill:#a180ff" d="m139.76 128.01-4.52 7.84v-.35l4.32-7.49zM139.96 128.01l-4.72 8.18v-.34l4.52-7.84z"/><path style="clip-path:url(#SVGID_8_);fill:#a180ff" d="m140.16 128.01-4.92 8.53v-.35l4.72-8.18z"/><path style="clip-path:url(#SVGID_8_);fill:#a180ff" d="m140.36 128.01-5.12 8.88v-.35l4.92-8.53z"/><path style="clip-path:url(#SVGID_8_);fill:#a180ff" d="m140.56 128.01-5.32 9.23v-.35l5.12-8.88z"/><path style="clip-path:url(#SVGID_8_);fill:#a180ff" d="m140.76 128.01-5.49 9.5-.03-.02v-.25l5.32-9.23zM140.96 128.01l-5.54 9.59-.15-.09 5.49-9.5z"/><path style="clip-path:url(#SVGID_8_);fill:#a180ff" d="m141.16 128.01-5.59 9.68-.15-.09 5.54-9.59zM141.36 128.01l-5.63 9.76-.16-.08 5.59-9.68z"/><path style="clip-path:url(#SVGID_8_);fill:#a180ff" d="m141.57 128.01-5.69 9.85-.15-.09 5.63-9.76z"/><path style="clip-path:url(#SVGID_8_);fill:#a180ff" d="m141.77 128.01-5.74 9.94-.15-.09 5.69-9.85z"/><path style="clip-path:url(#SVGID_8_);fill:#a180ff" d="m141.97 128.01-5.79 10.02-.15-.08 5.74-9.94z"/><path style="clip-path:url(#SVGID_8_);fill:#a180ff" d="m142.17 128.01-5.84 10.11-.15-.09 5.79-10.02zM142.37 128.01l-5.89 10.2-.15-.09 5.84-10.11z"/><path style="clip-path:url(#SVGID_8_);fill:#a180ff" d="m142.57 128.01-5.94 10.28-.15-.08 5.89-10.2z"/><path style="clip-path:url(#SVGID_8_);fill:#a180ff" d="m142.77 128.01-5.99 10.37-.15-.09 5.94-10.28z"/><path style="clip-path:url(#SVGID_8_);fill:#a180ff" d="m142.97 128.01-6.04 10.46-.15-.09 5.99-10.37z"/><path style="clip-path:url(#SVGID_8_);fill:#a180ff" d="m143.17 128.01-6.09 10.54-.15-.08 6.04-10.46zM143.37 128.01l-6.14 10.63-.15-.09 6.09-10.54z"/><path style="clip-path:url(#SVGID_8_);fill:#a180ff" d="m143.57 128.01-6.19 10.72-.15-.09 6.14-10.63z"/><path style="clip-path:url(#SVGID_8_);fill:#a180ff" d="m143.77 128.01-6.24 10.81-.15-.09 6.19-10.72z"/><path style="clip-path:url(#SVGID_8_);fill:#a180ff" d="m143.97 128.01-6.29 10.89-.15-.08 6.24-10.81z"/><path style="clip-path:url(#SVGID_8_);fill:#a180ff" d="m144.17 128.01-6.34 10.98-.15-.09 6.29-10.89zM144.37 128.01l-6.39 11.07-.15-.09 6.34-10.98z"/><path style="clip-path:url(#SVGID_8_);fill:#a180ff" d="m144.57 128.01-6.44 11.15-.15-.08 6.39-11.07z"/><path style="clip-path:url(#SVGID_8_);fill:#a180ff" d="m144.77 128.01-6.49 11.24-.15-.09 6.44-11.15z"/><path style="clip-path:url(#SVGID_8_);fill:#a180ff" d="m144.97 128.01-6.54 11.33-.15-.09 6.49-11.24z"/><path style="clip-path:url(#SVGID_8_);fill:#a180ff" d="m145.17 128.01-6.59 11.41-.15-.08 6.54-11.33zM145.37 128.01l-6.64 11.5-.15-.09 6.59-11.41z"/><path style="clip-path:url(#SVGID_8_);fill:#a180ff" d="m145.57 128.01-6.69 11.59-.15-.09 6.64-11.5z"/><path style="clip-path:url(#SVGID_8_);fill:#a180ff" d="m145.77 128.01-6.74 11.67-.15-.08 6.69-11.59z"/><path style="clip-path:url(#SVGID_8_);fill:#a180ff" d="m145.97 128.01-6.79 11.76-.15-.09 6.74-11.67z"/><path style="clip-path:url(#SVGID_8_);fill:#a180ff" d="m146.17 128.01-6.84 11.85-.15-.09 6.79-11.76zM146.37 128.01l-6.89 11.93-.15-.08 6.84-11.85z"/><path style="clip-path:url(#SVGID_8_);fill:#a180ff" d="m146.57 128.01-6.94 12.02-.15-.09 6.89-11.93z"/><path style="clip-path:url(#SVGID_8_);fill:#a180ff" d="m146.77 128.01-6.99 12.11-.15-.09 6.94-12.02z"/><path style="clip-path:url(#SVGID_8_);fill:#a180ff" d="m146.97 128.01-7.04 12.19-.15-.08 6.99-12.11z"/><path style="clip-path:url(#SVGID_8_);fill:#a180ff" d="m147.17 128.01-7.09 12.28-.15-.09 7.04-12.19zM147.37 128.01l-7.14 12.37-.15-.09 7.09-12.28z"/><path style="clip-path:url(#SVGID_8_);fill:#a180ff" d="m147.57 128.01-7.19 12.45-.15-.08 7.14-12.37z"/><path style="clip-path:url(#SVGID_8_);fill:#a180ff" d="m147.77 128.01-7.24 12.54-.15-.09 7.19-12.45z"/><path style="clip-path:url(#SVGID_8_);fill:#a180ff" d="m147.97 128.01-7.29 12.63-.15-.09 7.24-12.54z"/><path style="clip-path:url(#SVGID_8_);fill:#a180ff" d="m148.18 128.01-7.34 12.71-.16-.08 7.29-12.63z"/><path style="clip-path:url(#SVGID_8_);fill:#a180ff" d="m148.38 128.01-7.39 12.8-.15-.09 7.34-12.71z"/><path style="clip-path:url(#SVGID_8_);fill:#a180ff" d="m148.59 128.01-7.45 12.89-.15-.09 7.39-12.8z"/><path style="clip-path:url(#SVGID_8_);fill:#a180ff" d="m148.79 128.01-7.5 12.98-.15-.09 7.45-12.89zM148.99 128.01l-7.54 13.07-.16-.09 7.5-12.98z"/><path style="clip-path:url(#SVGID_8_);fill:#a180ff" d="m149.2 128.01-7.6 13.16-.15-.09 7.54-13.07z"/><path style="clip-path:url(#SVGID_8_);fill:#a180ff" d="m149.4 128.01-7.65 13.24-.15-.08 7.6-13.16z"/><path style="clip-path:url(#SVGID_8_);fill:#a180ff" d="m149.6 128.01-7.7 13.33-.15-.09 7.65-13.24z"/><path style="clip-path:url(#SVGID_8_);fill:#a180ff" d="m149.81 128.01-7.75 13.42-.16-.09 7.7-13.33z"/><path style="clip-path:url(#SVGID_8_);fill:#a180ff" d="m150.01 128.01-7.8 13.51-.15-.09 7.75-13.42zM150.21 128.01l-7.85 13.6-.15-.09 7.8-13.51z"/><path style="clip-path:url(#SVGID_8_);fill:#a180ff" d="m150.42 128.01-7.9 13.68-.16-.08 7.85-13.6zM150.62 128.01l-7.95 13.77-.15-.09 7.9-13.68z"/><path style="clip-path:url(#SVGID_8_);fill:#a180ff" d="m150.83 128.01-8.01 13.86-.15-.09 7.95-13.77z"/><path style="clip-path:url(#SVGID_8_);fill:#a180ff" d="m151.03 128.01-8.06 13.95-.15-.09 8.01-13.86z"/><path style="clip-path:url(#SVGID_8_);fill:#a180ff" d="m151.23 128.01-8.1 14.04-.16-.09 8.06-13.95z"/><path style="clip-path:url(#SVGID_8_);fill:#a180ff" d="m151.44 128.01-8.16 14.13-.15-.09 8.1-14.04z"/><path style="clip-path:url(#SVGID_8_);fill:#a180ff" d="m151.64 128.01-8.21 14.21-.15-.08 8.16-14.13zM151.84 128.01l-8.26 14.3-.15-.09 8.21-14.21z"/><path style="clip-path:url(#SVGID_8_);fill:#a180ff" d="m152.05 128.01-8.31 14.39-.16-.09 8.26-14.3z"/><path style="clip-path:url(#SVGID_8_);fill:#a180ff" d="m152.25 128.01-8.36 14.48-.15-.09 8.31-14.39zM152.46 128.01l-8.42 14.57-.15-.09 8.36-14.48z"/><path style="clip-path:url(#SVGID_8_);fill:#a180ff" d="m152.66 128.01-8.46 14.65-.16-.08 8.42-14.57zM152.86 128.01l-8.51 14.74-.15-.09 8.46-14.65z"/><path style="clip-path:url(#SVGID_8_);fill:#a180ff" d="m153.07 128.01-8.57 14.83-.15-.09 8.51-14.74z"/><path style="clip-path:url(#SVGID_8_);fill:#a180ff" d="m153.27 128.01-8.62 14.92-.15-.09 8.57-14.83z"/><path style="clip-path:url(#SVGID_8_);fill:#a180ff" d="m153.47 128.01-8.66 15.01-.16-.09 8.62-14.92z"/><path style="clip-path:url(#SVGID_8_);fill:#a180ff" d="m153.63 128.01.04.02-8.71 15.08-.15-.09 8.66-15.01z"/><path style="clip-path:url(#SVGID_8_);fill:#a180ff" d="m153.67 128.03.15.09-8.71 15.07-.15-.08zM153.82 128.12l.15.08-8.71 15.08-.15-.09z"/><path transform="rotate(-59.954 149.705 135.793)" style="clip-path:url(#SVGID_8_);fill:#a180ff" d="M140.99 135.7h17.41v.18h-17.41z"/><path transform="rotate(-60.04 149.838 135.868)" style="clip-path:url(#SVGID_8_);fill:#a180ff" d="M141.14 135.79h17.41v.18h-17.41z"/><path transform="rotate(-60.04 149.991 135.956)" style="clip-path:url(#SVGID_8_);fill:#a180ff" d="M141.29 135.87h17.41v.18h-17.41z"/><path transform="rotate(-59.907 150.154 136.054)" style="clip-path:url(#SVGID_8_);fill:#a180ff" d="M141.45 135.96h17.41v.18h-17.41z"/><path transform="rotate(-59.969 150.3 136.133)" style="clip-path:url(#SVGID_8_);fill:#a180ff" d="M141.6 136.05h17.41v.18H141.6z"/><path transform="rotate(-60.074 150.451 136.223)" style="clip-path:url(#SVGID_8_);fill:#a180ff" d="M141.75 136.14h17.41v.18h-17.41z"/><path transform="rotate(-60.007 150.605 136.312)" style="clip-path:url(#SVGID_8_);fill:#a180ff" d="M141.9 136.23h17.41v.18H141.9z"/><path transform="rotate(-59.987 150.772 136.408)" style="clip-path:url(#SVGID_8_);fill:#a180ff" d="M142.06 136.32h17.41v.18h-17.41z"/><path transform="rotate(-59.954 150.927 136.498)" style="clip-path:url(#SVGID_8_);fill:#a180ff" d="M142.21 136.4h17.41v.18h-17.41z"/><path transform="rotate(-59.954 151.07 136.585)" style="clip-path:url(#SVGID_8_);fill:#a180ff" d="M142.36 136.49h17.41v.18h-17.41z"/><path transform="rotate(-60.033 151.224 136.672)" style="clip-path:url(#SVGID_8_);fill:#a180ff" d="M142.52 136.58h17.41v.18h-17.41z"/><path transform="rotate(-59.954 151.386 136.763)" style="clip-path:url(#SVGID_8_);fill:#a180ff" d="M142.67 136.67h17.41v.18h-17.41z"/><path transform="rotate(-60.092 151.54 136.85)" style="clip-path:url(#SVGID_8_);fill:#a180ff" d="M142.82 136.76h17.41v.18h-17.41z"/><path transform="rotate(-59.987 151.689 136.937)" style="clip-path:url(#SVGID_8_);fill:#a180ff" d="M142.97 136.85h17.41v.18h-17.41z"/><path transform="rotate(-60.007 151.827 137.017)" style="clip-path:url(#SVGID_8_);fill:#a180ff" d="M143.13 136.93h17.41v.18h-17.41z"/><path transform="rotate(-59.932 151.993 137.116)" style="clip-path:url(#SVGID_8_);fill:#a180ff" d="M143.28 137.02h17.41v.18h-17.41z"/><path transform="rotate(-59.954 152.15 137.204)" style="clip-path:url(#SVGID_8_);fill:#a180ff" d="M143.43 137.11h17.41v.18h-17.41z"/><path transform="rotate(-60.007 152.285 137.282)" style="clip-path:url(#SVGID_8_);fill:#a180ff" d="M143.59 137.2H161v.18h-17.41z"/><path transform="rotate(-60.092 152.456 137.38)" style="clip-path:url(#SVGID_8_);fill:#a180ff" d="M143.74 137.29h17.41v.18h-17.41z"/><path transform="rotate(-60.007 152.59 137.458)" style="clip-path:url(#SVGID_8_);fill:#a180ff" d="M143.89 137.37h17.41v.18h-17.41z"/><path transform="rotate(-59.881 152.76 137.55)" style="clip-path:url(#SVGID_8_);fill:#a180ff" d="M144.04 137.46h17.41v.18h-17.41z"/><path style="clip-path:url(#SVGID_8_);fill:#a180ff" d="m157.18 130.06.15.08-8.7 15.08-.16-.09z"/><path transform="rotate(-59.987 153.063 137.73)" style="clip-path:url(#SVGID_8_);fill:#a180ff" d="M144.35 137.64h17.41v.18h-17.41z"/><path transform="rotate(-60.138 153.214 137.82)" style="clip-path:url(#SVGID_8_);fill:#a180ff" d="M144.5 137.73h17.41v.18H144.5z"/><path transform="rotate(-59.987 153.369 137.907)" style="clip-path:url(#SVGID_8_);fill:#a180ff" d="M144.65 137.82h17.41v.18h-17.41z"/><path style="clip-path:url(#SVGID_8_);fill:#a180ff" d="m157.79 130.41.15.09-8.7 15.07-.16-.08zM157.94 130.5l.15.08-8.7 15.08-.15-.09z"/><path transform="rotate(-59.954 153.83 138.174)" style="clip-path:url(#SVGID_8_);fill:#a180ff" d="M145.11 138.08h17.41v.18h-17.41z"/><path transform="rotate(-60.04 153.963 138.25)" style="clip-path:url(#SVGID_8_);fill:#a180ff" d="M145.27 138.17h17.41v.18h-17.41z"/><path transform="rotate(-60.092 154.137 138.35)" style="clip-path:url(#SVGID_8_);fill:#a180ff" d="M145.42 138.26h17.41v.18h-17.41z"/><path transform="rotate(-59.869 154.27 138.428)" style="clip-path:url(#SVGID_8_);fill:#a180ff" d="M145.57 138.34h17.41v.18h-17.41z"/><path transform="rotate(-60.04 154.42 138.514)" style="clip-path:url(#SVGID_8_);fill:#a180ff" d="M145.72 138.43h17.41v.18h-17.41z"/><path transform="rotate(-59.954 154.594 138.615)" style="clip-path:url(#SVGID_8_);fill:#a180ff" d="M145.88 138.52h17.41v.18h-17.41z"/><path transform="rotate(-60.04 154.726 138.69)" style="clip-path:url(#SVGID_8_);fill:#a180ff" d="M146.03 138.61h17.41v.18h-17.41z"/><path transform="rotate(-59.987 154.897 138.789)" style="clip-path:url(#SVGID_8_);fill:#a180ff" d="M146.18 138.7h17.41v.18h-17.41z"/><path transform="rotate(-59.954 155.052 138.88)" style="clip-path:url(#SVGID_8_);fill:#a180ff" d="M146.33 138.79h17.41v.18h-17.41z"/><path transform="rotate(-60.04 155.184 138.955)" style="clip-path:url(#SVGID_8_);fill:#a180ff" d="M146.49 138.87h17.41v.18h-17.41z"/><path transform="rotate(-59.954 155.357 139.056)" style="clip-path:url(#SVGID_8_);fill:#a180ff" d="M146.64 138.96h17.41v.18h-17.41z"/><path transform="rotate(-59.954 155.51 139.144)" style="clip-path:url(#SVGID_8_);fill:#a180ff" d="M146.79 139.05h17.41v.18h-17.41z"/><path transform="rotate(-60.04 155.642 139.22)" style="clip-path:url(#SVGID_8_);fill:#a180ff" d="M146.95 139.14h17.41v.18h-17.41z"/><path transform="rotate(-60.012 155.812 139.32)" style="clip-path:url(#SVGID_8_);fill:#a180ff" d="M147.1 139.23h17.41v.18H147.1z"/><path transform="rotate(-60.12 155.959 139.4)" style="clip-path:url(#SVGID_8_);fill:#a180ff" d="M147.25 139.31h17.41v.18h-17.41z"/><path style="clip-path:url(#SVGID_8_);fill:#a180ff" d="m160.39 131.91.15.09-8.71 15.07-.15-.08zM160.54 132l.15.08-8.7 15.08-.16-.09z"/><path transform="rotate(-60.04 156.406 139.66)" style="clip-path:url(#SVGID_8_);fill:#a180ff" d="M147.71 139.58h17.41v.18h-17.41z"/><path transform="rotate(-59.954 156.58 139.762)" style="clip-path:url(#SVGID_8_);fill:#a180ff" d="M147.86 139.67h17.41v.18h-17.41z"/><path transform="rotate(-59.96 156.707 139.83)" style="clip-path:url(#SVGID_8_);fill:#a180ff" d="M148 139.76h17.41v.14H148z"/><path transform="rotate(-60.028 156.818 139.898)" style="clip-path:url(#SVGID_8_);fill:#a180ff" d="M148.12 139.83h17.41v.14h-17.41z"/><path style="clip-path:url(#SVGID_8_);fill:#a180ff" d="m161.24 132.4.11.07-8.7 15.08-.12-.07z"/><path style="clip-path:url(#SVGID_8_);fill:#a180ff" d="m161.35 132.47.12.07-8.7 15.07-.12-.06z"/><path transform="rotate(-60.178 157.177 140.105)" style="clip-path:url(#SVGID_8_);fill:#a180ff" d="M148.48 140.04h17.41v.14h-17.41z"/><path transform="rotate(-59.966 157.304 140.182)" style="clip-path:url(#SVGID_8_);fill:#a180ff" d="M148.59 140.11H166v.14h-17.41z"/><path transform="rotate(-59.815 157.411 140.246)" style="clip-path:url(#SVGID_8_);fill:#a180ff" d="M148.71 140.18h17.41v.14h-17.41z"/><path transform="rotate(-60.028 157.534 140.311)" style="clip-path:url(#SVGID_8_);fill:#a180ff" d="M148.83 140.25h17.41v.14h-17.41z"/><path transform="rotate(-60.138 157.657 140.388)" style="clip-path:url(#SVGID_8_);fill:#a180ff" d="M148.95 140.32h17.41v.14h-17.41z"/><path style="clip-path:url(#SVGID_8_);fill:#a180ff" d="m162.07 132.88.12.07-8.69 15.06h-.05l-.09-.05z"/><path style="clip-path:url(#SVGID_8_);fill:#a180ff" d="m162.19 132.95.12.07-8.66 14.99h-.15zM162.31 133.02l.12.07-8.62 14.92h-.16z"/><path style="clip-path:url(#SVGID_8_);fill:#a180ff" d="m162.43 133.09.12.07-8.58 14.85h-.16zM162.55 133.16l.12.06-8.54 14.79h-.16z"/><path style="clip-path:url(#SVGID_8_);fill:#a180ff" d="m162.67 133.22.12.07-8.5 14.72h-.16z"/><path style="clip-path:url(#SVGID_8_);fill:#a180ff" d="m162.79 133.29.12.07-8.46 14.65h-.16zM162.91 133.36l.11.07-8.41 14.58h-.16z"/><path style="clip-path:url(#SVGID_8_);fill:#a180ff" d="m163.02 133.43.12.07-8.37 14.51h-.16z"/><path style="clip-path:url(#SVGID_8_);fill:#a180ff" d="m163.14 133.5.12.07-8.33 14.44h-.16zM163.26 133.57l.12.07-8.29 14.37h-.16z"/><path style="clip-path:url(#SVGID_8_);fill:#a180ff" d="m163.38 133.64.12.07-8.26 14.3h-.15zM163.5 133.71l.12.07-8.22 14.23h-.16z"/><path style="clip-path:url(#SVGID_8_);fill:#a180ff" d="m163.62 133.78.12.06-8.18 14.17h-.16zM163.74 133.84l.12.07-8.14 14.1h-.16z"/><path style="clip-path:url(#SVGID_8_);fill:#a180ff" d="m163.86 133.91.12.07-8.1 14.03h-.16z"/><path style="clip-path:url(#SVGID_8_);fill:#a180ff" d="m163.98 133.98.12.07-8.06 13.96h-.16zM164.1 134.05l.12.07-8.02 13.89h-.16zM164.22 134.12l.12.07-7.98 13.82h-.16z"/><path style="clip-path:url(#SVGID_8_);fill:#a180ff" d="m164.34 134.19.12.07-7.94 13.75h-.16z"/><path style="clip-path:url(#SVGID_8_);fill:#a180ff" d="m164.46 134.26.12.07-7.9 13.68h-.16zM164.58 134.33l.12.07-7.86 13.61h-.16z"/><path style="clip-path:url(#SVGID_8_);fill:#a180ff" d="m164.7 134.4.11.06-7.82 13.55h-.15z"/><path style="clip-path:url(#SVGID_8_);fill:#a180ff" d="m164.81 134.46.12.07-7.78 13.48h-.16z"/><path style="clip-path:url(#SVGID_8_);fill:#a180ff" d="m164.93 134.53.12.07-7.74 13.41h-.16zM165.05 134.6l.12.07-7.7 13.34h-.16z"/><path style="clip-path:url(#SVGID_8_);fill:#a180ff" d="m165.17 134.67.12.07-7.66 13.27h-.16zM165.29 134.74l.12.07-7.62 13.2h-.16z"/><path style="clip-path:url(#SVGID_8_);fill:#a180ff" d="m165.41 134.81.12.07-7.58 13.13h-.16zM165.53 134.88l.12.07-7.54 13.06h-.16z"/><path style="clip-path:url(#SVGID_8_);fill:#a180ff" d="m165.65 134.95.12.07-7.5 12.99h-.16zM165.77 135.02l.12.06-7.46 12.93h-.16z"/><path style="clip-path:url(#SVGID_8_);fill:#a180ff" d="m165.89 135.08.12.07-7.42 12.86h-.16z"/><path style="clip-path:url(#SVGID_8_);fill:#a180ff" d="m166.01 135.15.12.07-7.39 12.79h-.15zM166.13 135.22l.08.05v.09l-7.31 12.65h-.16z"/><path style="clip-path:url(#SVGID_8_);fill:#a180ff" d="m166.21 135.64-7.15 12.37h-.16l7.31-12.65z"/><path style="clip-path:url(#SVGID_8_);fill:#a180ff" d="m166.21 135.91-6.99 12.1h-.16l7.15-12.37z"/><path style="clip-path:url(#SVGID_8_);fill:#a180ff" d="m166.21 136.19-6.83 11.82h-.16l6.99-12.1zM166.21 136.46l-6.67 11.55h-.16l6.83-11.82z"/><path style="clip-path:url(#SVGID_8_);fill:#a180ff" d="m166.21 136.74-6.51 11.27h-.16l6.67-11.55z"/><path style="clip-path:url(#SVGID_8_);fill:#a180ff" d="m166.21 137.01-6.35 11h-.16l6.51-11.27z"/><path style="clip-path:url(#SVGID_8_);fill:#a180ff" d="m166.21 137.29-6.19 10.72h-.16l6.35-11z"/><path style="clip-path:url(#SVGID_8_);fill:#a180ff" d="m166.21 137.56-6.03 10.45h-.16l6.19-10.72z"/><path style="clip-path:url(#SVGID_8_);fill:#a180ff" d="m166.21 137.84-5.88 10.17h-.15l6.03-10.45z"/><path style="clip-path:url(#SVGID_8_);fill:#a180ff" d="m166.21 138.12-5.72 9.89h-.16l5.88-10.17z"/><path style="clip-path:url(#SVGID_8_);fill:#a180ff" d="m166.21 138.39-5.56 9.62h-.16l5.72-9.89z"/><path style="clip-path:url(#SVGID_8_);fill:#a180ff" d="m166.21 138.56-5.46 9.45h-.1l5.56-9.62zM166.21 138.74l-5.36 9.27h-.1l5.46-9.45zM166.21 138.91l-5.26 9.1h-.1l5.36-9.27zM166.21 139.08l-5.16 8.93h-.1l5.26-9.1z"/><path style="clip-path:url(#SVGID_8_);fill:#a180ff" d="m166.21 139.25-5.06 8.76h-.1l5.16-8.93zM166.21 139.43l-4.96 8.58h-.1l5.06-8.76z"/><path style="clip-path:url(#SVGID_8_);fill:#a180ff" d="m166.21 139.6-4.86 8.41h-.1l4.96-8.58zM166.21 139.77l-4.76 8.24h-.1l4.86-8.41z"/><path style="clip-path:url(#SVGID_8_);fill:#a180ff" d="m166.21 139.94-4.66 8.07h-.1l4.76-8.24z"/><path style="clip-path:url(#SVGID_8_);fill:#a180ff" d="m166.21 140.12-4.56 7.89h-.1l4.66-8.07z"/><path style="clip-path:url(#SVGID_8_);fill:#a180ff" d="m166.21 140.29-4.46 7.72h-.1l4.56-7.89zM166.21 140.46l-4.36 7.55h-.1l4.46-7.72zM166.21 140.64l-4.26 7.37h-.1l4.36-7.55z"/><path style="clip-path:url(#SVGID_8_);fill:#a180ff" d="m166.21 140.81-4.16 7.2h-.1l4.26-7.37z"/><path style="clip-path:url(#SVGID_8_);fill:#a180ff" d="m166.21 140.98-4.06 7.03h-.1l4.16-7.2zM166.21 141.15l-3.96 6.86h-.1l4.06-7.03z"/><path style="clip-path:url(#SVGID_8_);fill:#a180ff" d="m166.21 141.33-3.86 6.68h-.1l3.96-6.86zM166.21 141.5l-3.76 6.51h-.1l3.86-6.68z"/><path style="clip-path:url(#SVGID_8_);fill:#a180ff" d="m166.21 141.67-3.66 6.34h-.1l3.76-6.51z"/><path style="clip-path:url(#SVGID_8_);fill:#a180ff" d="m166.21 141.84-3.56 6.17h-.1l3.66-6.34zM166.21 142.02l-3.46 5.99h-.1l3.56-6.17z"/><path style="clip-path:url(#SVGID_8_);fill:#a180ff" d="m166.21 142.19-3.36 5.82h-.1l3.46-5.99zM166.21 142.36l-3.26 5.65h-.1l3.36-5.82z"/><path style="clip-path:url(#SVGID_8_);fill:#a180ff" d="m166.21 142.54-3.16 5.47h-.1l3.26-5.65zM166.21 142.71l-3.06 5.3h-.1l3.16-5.47z"/><path style="clip-path:url(#SVGID_8_);fill:#a180ff" d="m166.21 142.88-2.96 5.13h-.1l3.06-5.3zM166.21 143.05l-2.86 4.96h-.1l2.96-5.13z"/><path style="clip-path:url(#SVGID_8_);fill:#a180ff" d="m166.21 143.23-2.77 4.78h-.09l2.86-4.96zM166.21 143.4l-2.67 4.61h-.1l2.77-4.78z"/><path style="clip-path:url(#SVGID_8_);fill:#a180ff" d="m166.21 143.57-2.57 4.44h-.1l2.67-4.61zM166.21 143.74l-2.47 4.27h-.1l2.57-4.44z"/><path style="clip-path:url(#SVGID_8_);fill:#a180ff" d="m166.21 143.92-2.37 4.09h-.1l2.47-4.27z"/><path style="clip-path:url(#SVGID_8_);fill:#a180ff" d="m166.21 144.09-2.27 3.92h-.1l2.37-4.09zM166.21 144.26l-2.17 3.75h-.1l2.27-3.92zM166.21 144.43l-2.07 3.58h-.1l2.17-3.75z"/><path style="clip-path:url(#SVGID_8_);fill:#a180ff" d="m166.21 144.61-1.97 3.4h-.1l2.07-3.58z"/><path style="clip-path:url(#SVGID_8_);fill:#a180ff" d="m166.21 144.78-1.87 3.23h-.1l1.97-3.4z"/><path style="clip-path:url(#SVGID_8_);fill:#a180ff" d="m166.21 144.95-1.77 3.06h-.1l1.87-3.23zM166.21 145.13l-1.67 2.88h-.1l1.77-3.06zM166.21 145.3l-1.57 2.71h-.1l1.67-2.88z"/><path style="clip-path:url(#SVGID_8_);fill:#a180ff" d="m166.21 145.47-1.47 2.54h-.1l1.57-2.71z"/><path style="clip-path:url(#SVGID_8_);fill:#a180ff" d="m166.21 145.64-1.37 2.37h-.1l1.47-2.54z"/><path style="clip-path:url(#SVGID_8_);fill:#a180ff" d="m166.21 145.82-1.27 2.19h-.1l1.37-2.37zM166.21 145.99l-1.17 2.02h-.1l1.27-2.19z"/><path style="clip-path:url(#SVGID_8_);fill:#a180ff" d="m166.21 146.16-1.07 1.85h-.1l1.17-2.02z"/><path style="clip-path:url(#SVGID_8_);fill:#a180ff" d="m165.14 148.01 1.07-1.85v1.85z"/></g><g><defs><path id="SVGID_2_" d="M52.61 112.66s-17.85-.58-24.36 8.41l1.62 3.61-11.15-4.81 4.77-10.71 1.56 3.67c.02 0 14.98-6.17 27.56-.17z"/></defs><use xlink:href="#SVGID_2_" style="overflow:visible;fill:#a180ff"/><clipPath id="SVGID_9_"><use xlink:href="#SVGID_2_" style="overflow:visible"/></clipPath><path style="clip-path:url(#SVGID_9_);fill:#a180ff" d="m45.67 124.68 6.94-12.02v12.02z"/><path style="clip-path:url(#SVGID_9_);fill:#a180ff" d="m45.51 124.68 7.1-12.29v.27l-6.94 12.02zM45.36 124.68l7.21-12.48.04.02v.17l-7.1 12.29z"/><path style="clip-path:url(#SVGID_9_);fill:#a180ff" d="m45.2 124.68 7.25-12.55.12.07-7.21 12.48zM45.05 124.68l7.28-12.62.12.07-7.25 12.55z"/><path style="clip-path:url(#SVGID_9_);fill:#a180ff" d="m44.89 124.68 7.33-12.69.11.07-7.28 12.62zM44.73 124.68l7.37-12.75.12.06-7.33 12.69z"/><path style="clip-path:url(#SVGID_9_);fill:#a180ff" d="m44.58 124.68 7.4-12.82.12.07-7.37 12.75zM44.42 124.68l7.44-12.89.12.07-7.4 12.82zM44.26 124.68l7.49-12.96.11.07-7.44 12.89zM44.11 124.68l7.52-13.02.12.06-7.49 12.96zM43.95 124.68l7.56-13.09.12.07-7.52 13.02zM43.8 124.68l7.6-13.16.11.07-7.56 13.09zM43.64 124.68l7.64-13.23.12.07-7.6 13.16z"/><path style="clip-path:url(#SVGID_9_);fill:#a180ff" d="m43.48 124.68 7.68-13.29.12.06-7.64 13.23zM43.33 124.68l7.71-13.36.12.07-7.68 13.29zM43.17 124.68l7.76-13.43.11.07-7.71 13.36z"/><path style="clip-path:url(#SVGID_9_);fill:#a180ff" d="m43.02 124.68 7.79-13.5.12.07-7.76 13.43zM42.86 124.68l7.83-13.56.12.06-7.79 13.5z"/><path style="clip-path:url(#SVGID_9_);fill:#a180ff" d="m42.7 124.68 7.88-13.63.11.07-7.83 13.56zM42.55 124.68l7.91-13.7.12.07-7.88 13.63z"/><path style="clip-path:url(#SVGID_9_);fill:#a180ff" d="m42.39 124.68 7.95-13.77.12.07-7.91 13.7zM42.24 124.68l7.98-13.83.12.06-7.95 13.77zM42.08 124.68l8.03-13.9.11.07-7.98 13.83z"/><path style="clip-path:url(#SVGID_9_);fill:#a180ff" d="m41.92 124.68 8.07-13.97.12.07-8.03 13.9z"/><path style="clip-path:url(#SVGID_9_);fill:#a180ff" d="m41.77 124.68 8.1-14.04.12.07-8.07 13.97zM41.61 124.68l8.15-14.1.11.06-8.1 14.04zM41.45 124.68l8.19-14.17.12.07-8.15 14.1zM41.3 124.68l8.22-14.24.12.07-8.19 14.17zM41.14 124.68l8.27-14.31.11.07-8.22 14.24z"/><path style="clip-path:url(#SVGID_9_);fill:#a180ff" d="m40.99 124.68 8.3-14.38.12.07-8.27 14.31zM40.83 124.68l8.34-14.44.12.06-8.3 14.38zM40.67 124.68l8.38-14.51.12.07-8.34 14.44z"/><path style="clip-path:url(#SVGID_9_);fill:#a180ff" d="m40.52 124.68 8.42-14.58.11.07-8.38 14.51zM40.36 124.68l8.46-14.65.12.07-8.42 14.58z"/><path style="clip-path:url(#SVGID_9_);fill:#a180ff" d="m40.2 124.68 8.5-14.71.12.06-8.46 14.65zM40.05 124.68l8.54-14.78.11.07-8.5 14.71z"/><path style="clip-path:url(#SVGID_9_);fill:#a180ff" d="m39.89 124.68 8.58-14.85.12.07-8.54 14.78zM39.74 124.68l8.61-14.92.12.07-8.58 14.85zM39.58 124.68l8.65-14.98.12.06-8.61 14.92z"/><path style="clip-path:url(#SVGID_9_);fill:#a180ff" d="m39.42 124.68 8.7-15.05.11.07-8.65 14.98zM39.27 124.68 48 109.56l.12.07-8.7 15.05zM39.11 124.68l8.77-15.19.12.07-8.73 15.12z"/><path style="clip-path:url(#SVGID_9_);fill:#a180ff" d="m38.96 124.68 8.81-15.25.11.06-8.77 15.19zM38.8 124.68l8.85-15.32.12.07-8.81 15.25zM38.64 124.68l8.89-15.39.12.07-8.85 15.32zM38.49 124.68l8.92-15.46.12.07-8.89 15.39z"/><path style="clip-path:url(#SVGID_9_);fill:#a180ff" d="m38.33 124.68 8.97-15.52.11.06-8.92 15.46zM38.18 124.68l9-15.59.12.07-8.97 15.52z"/><path style="clip-path:url(#SVGID_9_);fill:#a180ff" d="m38.02 124.68 9.04-15.66.12.07-9 15.59zM37.86 124.68l9.09-15.73.11.07-9.04 15.66zM37.71 124.68l9.12-15.8.12.07-9.09 15.73zM37.55 124.68l9.16-15.86.12.06-9.12 15.8zM37.39 124.68l9.21-15.93.11.07-9.16 15.86z"/><path style="clip-path:url(#SVGID_9_);fill:#a180ff" d="m37.24 124.68 9.24-16 .12.07-9.21 15.93zM37.08 124.68l9.28-16.07.12.07-9.24 16z"/><path style="clip-path:url(#SVGID_9_);fill:#a180ff" d="m36.93 124.68 9.31-16.13.12.06-9.28 16.07zM36.77 124.68l9.35-16.2.12.07-9.31 16.13zM36.61 124.68l9.4-16.27.11.07-9.35 16.2zM36.45 124.68l9.44-16.34.12.07-9.4 16.27zM36.29 124.68l9.48-16.41.12.07-9.44 16.34zM36.13 124.68l9.52-16.48.12.07-9.48 16.41zM35.97 124.68l9.56-16.55.12.07-9.52 16.48zM35.82 124.68l9.59-16.61.12.06-9.56 16.55zM35.66 124.68 45.29 108l.12.07-9.59 16.61z"/><path style="clip-path:url(#SVGID_9_);fill:#a180ff" d="m35.5 124.68 9.67-16.75.12.07-9.63 16.68z"/><path style="clip-path:url(#SVGID_9_);fill:#a180ff" d="m35.34 124.68 9.71-16.82.12.07-9.67 16.75zM35.18 124.68l9.75-16.89.12.07-9.71 16.82zM35.02 124.68l9.79-16.96.12.07-9.75 16.89z"/><path style="clip-path:url(#SVGID_9_);fill:#a180ff" d="m34.86 124.68 9.84-17.03.11.07-9.79 16.96z"/><path style="clip-path:url(#SVGID_9_);fill:#a180ff" d="m34.7 124.68 9.88-17.1.12.07-9.84 17.03zM34.55 124.68l9.91-17.16.12.06-9.88 17.1zM34.39 124.68l9.95-17.23.12.07-9.91 17.16zM34.23 124.68l9.99-17.3.12.07-9.95 17.23zM34.07 124.68l10.03-17.37.12.07-9.99 17.3zM33.91 124.68l10.07-17.44.12.07-10.03 17.37zM33.75 124.68l10.11-17.51.12.07-10.07 17.44z"/><path style="clip-path:url(#SVGID_9_);fill:#a180ff" d="m33.59 124.68 10.15-17.58.12.07-10.11 17.51zM33.43 124.68l10.19-17.65.12.07-10.15 17.58z"/><path style="clip-path:url(#SVGID_9_);fill:#a180ff" d="m33.27 124.68 10.23-17.71.12.06-10.19 17.65zM33.12 124.68l10.27-17.78.11.07-10.23 17.71z"/><path style="clip-path:url(#SVGID_9_);fill:#a180ff" d="m32.96 124.68 10.31-17.85.12.07-10.27 17.78zM32.8 124.68l10.35-17.92.12.07-10.31 17.85z"/><path style="clip-path:url(#SVGID_9_);fill:#a180ff" d="m32.64 124.68 10.39-17.99.12.07-10.35 17.92z"/><path style="clip-path:url(#SVGID_9_);fill:#a180ff" d="m32.48 124.68 10.41-18.02h.08l.06.03-10.39 17.99z"/><path style="clip-path:url(#SVGID_9_);fill:#a180ff" d="m32.32 124.68 10.41-18.02h.16l-10.41 18.02zM32.16 124.68l10.41-18.02h.16l-10.41 18.02z"/><path style="clip-path:url(#SVGID_9_);fill:#a180ff" d="m32 124.68 10.41-18.02h.16l-10.41 18.02z"/><path style="clip-path:url(#SVGID_9_);fill:#a180ff" d="m31.85 124.68 10.4-18.02h.16L32 124.68z"/><path style="clip-path:url(#SVGID_9_);fill:#a180ff" d="m31.69 124.68 10.4-18.02h.16l-10.4 18.02zM31.53 124.68l10.41-18.02h.15l-10.4 18.02zM31.37 124.68l10.41-18.02h.16l-10.41 18.02z"/><path style="clip-path:url(#SVGID_9_);fill:#a180ff" d="m31.21 124.68 10.41-18.02h.16l-10.41 18.02zM31.05 124.68l10.41-18.02h.16l-10.41 18.02zM30.89 124.68l10.41-18.02h.16l-10.41 18.02zM30.73 124.68l10.41-18.02h.16l-10.41 18.02zM30.58 124.68l10.4-18.02h.16l-10.41 18.02z"/><path style="clip-path:url(#SVGID_9_);fill:#a180ff" d="m30.42 124.68 10.4-18.02h.16l-10.4 18.02z"/><path style="clip-path:url(#SVGID_9_);fill:#a180ff" d="m30.26 124.68 10.41-18.02h.15l-10.4 18.02z"/><path style="clip-path:url(#SVGID_9_);fill:#a180ff" d="m30.1 124.68 10.41-18.02h.16l-10.41 18.02zM29.94 124.68l10.41-18.02h.16L30.1 124.68zM29.78 124.68l10.41-18.02h.16l-10.41 18.02zM29.62 124.68l10.41-18.02h.16l-10.41 18.02z"/><path style="clip-path:url(#SVGID_9_);fill:#a180ff" d="m29.46 124.68 10.41-18.02h.16l-10.41 18.02zM29.31 124.68l10.4-18.02h.16l-10.41 18.02zM29.15 124.68l10.4-18.02h.16l-10.4 18.02z"/><path style="clip-path:url(#SVGID_9_);fill:#a180ff" d="m28.99 124.68 10.41-18.02h.15l-10.4 18.02zM28.83 124.68l10.41-18.02h.16l-10.41 18.02zM28.67 124.68l10.41-18.02h.16l-10.41 18.02zM28.51 124.68l10.41-18.02h.16l-10.41 18.02z"/><path style="clip-path:url(#SVGID_9_);fill:#a180ff" d="m28.35 124.68 10.41-18.02h.16l-10.41 18.02zM28.19 124.68l10.41-18.02h.16l-10.41 18.02zM28.04 124.68l10.4-18.02h.16l-10.41 18.02z"/><path style="clip-path:url(#SVGID_9_);fill:#a180ff" d="m27.88 124.68 10.4-18.02h.16l-10.4 18.02zM27.72 124.68l10.41-18.02h.15l-10.4 18.02zM27.56 124.68l10.41-18.02h.16l-10.41 18.02z"/><path style="clip-path:url(#SVGID_9_);fill:#a180ff" d="m27.4 124.68 10.41-18.02h.16l-10.41 18.02zM27.24 124.68l10.41-18.02h.16L27.4 124.68zM27.08 124.68l10.41-18.02h.16l-10.41 18.02zM26.92 124.68l10.41-18.02h.16l-10.41 18.02zM26.77 124.68l10.4-18.02h.16l-10.41 18.02zM26.61 124.68l10.4-18.02h.16l-10.4 18.02z"/><path style="clip-path:url(#SVGID_9_);fill:#a180ff" d="m26.45 124.68 10.41-18.02h.15l-10.4 18.02z"/><path style="clip-path:url(#SVGID_9_);fill:#a180ff" d="M26.31 124.68h-.02l10.41-18.02h.16l-10.41 18.02zM26.29 124.68l-.12-.07 10.37-17.95h.16zM26.17 124.61l-.11-.07 10.32-17.88h.16zM26.06 124.54l-.12-.07 10.28-17.81h.16zM25.94 124.47l-.12-.07 10.24-17.74h.16zM25.82 124.4l-.12-.07 10.2-17.67h.16zM25.7 124.33l-.12-.07 10.16-17.6h.16z"/><path style="clip-path:url(#SVGID_9_);fill:#a180ff" d="m25.58 124.26-.12-.06 10.13-17.54h.15z"/><path style="clip-path:url(#SVGID_9_);fill:#a180ff" d="m25.46 124.2-.12-.07 10.09-17.47h.16zM25.34 124.13l-.12-.07 10.05-17.4h.16z"/><path style="clip-path:url(#SVGID_9_);fill:#a180ff" d="m25.22 124.06-.09-.05 10.01-17.35h.13zM25.13 124.01l-.09-.06 9.98-17.29h.12z"/><path style="clip-path:url(#SVGID_9_);fill:#a180ff" d="m25.04 123.95-.1-.05 9.96-17.24h.12z"/><path style="clip-path:url(#SVGID_9_);fill:#a180ff" d="m24.94 123.9-.09-.06 9.92-17.18h.13z"/><path style="clip-path:url(#SVGID_9_);fill:#a180ff" d="m24.85 123.84-.09-.05 9.89-17.13h.12zM24.76 123.79l-.1-.05 9.86-17.08h.13zM24.66 123.74l-.09-.06 9.83-17.02h.12z"/><path style="clip-path:url(#SVGID_9_);fill:#a180ff" d="m24.57 123.68-.09-.05 9.8-16.97h.12zM24.48 123.63l-.1-.05 9.77-16.92h.13z"/><path style="clip-path:url(#SVGID_9_);fill:#a180ff" d="m24.38 123.58-.09-.06 9.74-16.86h.12z"/><path style="clip-path:url(#SVGID_9_);fill:#a180ff" d="m24.29 123.52-.09-.05 9.7-16.81h.13z"/><path style="clip-path:url(#SVGID_9_);fill:#a180ff" d="m24.2 123.47-.09-.06 9.67-16.75h.12zM24.11 123.41l-.1-.05 9.65-16.7h.12z"/><path style="clip-path:url(#SVGID_9_);fill:#a180ff" d="m24.01 123.36-.09-.05 9.61-16.65h.13z"/><path style="clip-path:url(#SVGID_9_);fill:#a180ff" d="m23.92 123.31-.09-.06 9.58-16.59h.12zM23.83 123.25l-.1-.05 9.55-16.54h.13z"/><path style="clip-path:url(#SVGID_9_);fill:#a180ff" d="m23.73 123.2-.09-.05 9.52-16.49h.12zM23.64 123.15l-.09-.06 9.49-16.43h.12z"/><path style="clip-path:url(#SVGID_9_);fill:#a180ff" d="m23.55 123.09-.1-.05 9.46-16.38h.13zM23.45 123.04l-.09-.06 9.43-16.32h.12z"/><path style="clip-path:url(#SVGID_9_);fill:#a180ff" d="m23.36 122.98-.09-.05 9.39-16.27h.13z"/><path style="clip-path:url(#SVGID_9_);fill:#a180ff" d="m23.27 122.93-.09-.05 9.36-16.22h.12zM23.18 122.88l-.1-.06 9.34-16.16h.12z"/><path style="clip-path:url(#SVGID_9_);fill:#a180ff" d="m23.08 122.82-.09-.05 9.3-16.11h.13z"/><path style="clip-path:url(#SVGID_9_);fill:#a180ff" d="m22.99 122.77-.09-.05 9.27-16.06h.12z"/><path style="clip-path:url(#SVGID_9_);fill:#a180ff" d="m22.9 122.72-.1-.06 9.24-16h.13z"/><path style="clip-path:url(#SVGID_9_);fill:#a180ff" d="m22.8 122.66-.09-.05 9.21-15.95h.12z"/><path style="clip-path:url(#SVGID_9_);fill:#a180ff" d="m22.71 122.61-.09-.05 9.18-15.9h.12z"/><path style="clip-path:url(#SVGID_9_);fill:#a180ff" d="m22.62 122.56-.1-.06 9.15-15.84h.13zM22.52 122.5l-.09-.05 9.12-15.79h.12z"/><path style="clip-path:url(#SVGID_9_);fill:#a180ff" d="m22.43 122.45-.09-.06 9.08-15.73h.13z"/><path style="clip-path:url(#SVGID_9_);fill:#a180ff" d="m22.34 122.39-.09-.05 9.05-15.68h.12z"/><path style="clip-path:url(#SVGID_9_);fill:#a180ff" d="m22.25 122.34-.1-.05 9.03-15.63h.12zM22.15 122.29l-.09-.06 8.99-15.57h.13z"/><path style="clip-path:url(#SVGID_9_);fill:#a180ff" d="m22.06 122.23-.09-.05 8.96-15.52h.12zM21.97 122.18l-.1-.05 8.93-15.47h.13zM21.87 122.13l-.09-.06 8.9-15.41h.12z"/><path style="clip-path:url(#SVGID_9_);fill:#a180ff" d="m21.78 122.07-.09-.05 8.87-15.36h.12zM21.69 122.02l-.1-.06 8.84-15.3h.13z"/><path style="clip-path:url(#SVGID_9_);fill:#a180ff" d="m21.59 121.96-.09-.05 8.81-15.25h.12z"/><path style="clip-path:url(#SVGID_9_);fill:#a180ff" d="m21.5 121.91-.09-.05 8.77-15.2h.13z"/><path style="clip-path:url(#SVGID_9_);fill:#a180ff" d="m21.41 121.86-.09-.06 8.74-15.14h.12zM21.32 121.8l-.1-.05 8.72-15.09h.12z"/><path style="clip-path:url(#SVGID_9_);fill:#a180ff" d="m21.22 121.75-.09-.05 8.68-15.04h.13z"/><path style="clip-path:url(#SVGID_9_);fill:#a180ff" d="m21.13 121.7-.09-.06 8.65-14.98h.12zM21.04 121.64l-.1-.05 8.62-14.93h.13z"/><path style="clip-path:url(#SVGID_9_);fill:#a180ff" d="m20.94 121.59-.09-.05 8.59-14.88h.12zM20.85 121.54l-.09-.06 8.56-14.82h.12z"/><path style="clip-path:url(#SVGID_9_);fill:#a180ff" d="m20.76 121.48-.1-.05 8.53-14.77h.13zM20.66 121.43l-.09-.06 8.5-14.71h.12z"/><path style="clip-path:url(#SVGID_9_);fill:#a180ff" d="m20.57 121.37-.09-.05 8.46-14.66h.13zM20.48 121.32l-.09-.05 8.43-14.61h.12z"/><path style="clip-path:url(#SVGID_9_);fill:#a180ff" d="m20.39 121.27-.1-.06 8.41-14.55h.12z"/><path style="clip-path:url(#SVGID_9_);fill:#a180ff" d="m20.29 121.21-.09-.05 8.37-14.5h.13z"/><path style="clip-path:url(#SVGID_9_);fill:#a180ff" d="m20.2 121.16-.09-.05 8.34-14.45h.12z"/><path style="clip-path:url(#SVGID_9_);fill:#a180ff" d="m20.11 121.11-.06-.04 8.32-14.41h.08z"/><path style="clip-path:url(#SVGID_9_);fill:#a180ff" d="m20.05 121.07-.06-.03 8.3-14.38h.08z"/><path style="clip-path:url(#SVGID_9_);fill:#a180ff" d="m19.99 121.04-.06-.04 8.28-14.34h.08z"/><path style="clip-path:url(#SVGID_9_);fill:#a180ff" d="m19.93 121-.06-.03 8.27-14.31h.07z"/><path style="clip-path:url(#SVGID_9_);fill:#a180ff" d="m19.87 120.97-.05-.03 8.24-14.28h.08z"/><path style="clip-path:url(#SVGID_9_);fill:#a180ff" d="m19.82 120.94-.06-.04 8.22-14.24h.08z"/><path style="clip-path:url(#SVGID_9_);fill:#a180ff" d="m19.76 120.9-.06-.03 8.2-14.21h.08zM19.7 120.87l-.06-.03 8.19-14.18h.07z"/><path style="clip-path:url(#SVGID_9_);fill:#a180ff" d="m19.64 120.84-.06-.04 8.17-14.14h.08zM19.58 120.8l-.06-.03 8.15-14.11h.08zM19.52 120.77l-.05-.03 8.12-14.08h.08z"/><path style="clip-path:url(#SVGID_9_);fill:#a180ff" d="m19.47 120.74-.06-.04 8.11-14.04h.07z"/><path style="clip-path:url(#SVGID_9_);fill:#a180ff" d="m19.41 120.7-.06-.03 8.09-14.01h.08z"/><path style="clip-path:url(#SVGID_9_);fill:#a180ff" d="m19.35 120.67-.06-.04 8.07-13.97h.08zM19.29 120.63l-.06-.03 8.05-13.94h.08z"/><path style="clip-path:url(#SVGID_9_);fill:#a180ff" d="m19.23 120.6-.06-.03 8.03-13.91h.08zM19.17 120.57l-.05-.04 8.01-13.87h.07z"/><path style="clip-path:url(#SVGID_9_);fill:#a180ff" d="m19.12 120.53-.06-.03 7.99-13.84h.08zM19.06 120.5l-.06-.03 7.97-13.81h.08z"/><path style="clip-path:url(#SVGID_9_);fill:#a180ff" d="m19 120.47-.06-.04 7.95-13.77h.08z"/><path style="clip-path:url(#SVGID_9_);fill:#a180ff" d="m18.94 120.43-.06-.03 7.94-13.74h.07zM18.88 120.4l-.06-.03 7.92-13.71h.08zM18.82 120.37l-.05-.04 7.89-13.67h.08z"/><path style="clip-path:url(#SVGID_9_);fill:#a180ff" d="m18.77 120.33-.04-.02v-.05l7.85-13.6h.08zM18.73 120.12l7.77-13.46h.08l-7.85 13.6z"/><path style="clip-path:url(#SVGID_9_);fill:#a180ff" d="m18.73 119.99 7.7-13.33h.07l-7.77 13.46z"/><path style="clip-path:url(#SVGID_9_);fill:#a180ff" d="m18.73 119.85 7.62-13.19h.08l-7.7 13.33zM18.73 119.72l7.54-13.06h.08l-7.62 13.19z"/><path style="clip-path:url(#SVGID_9_);fill:#a180ff" d="m18.73 119.58 7.46-12.92h.08l-7.54 13.06z"/><path style="clip-path:url(#SVGID_9_);fill:#a180ff" d="m18.73 119.45 7.39-12.79h.07l-7.46 12.92zM18.73 119.32l7.31-12.66h.08l-7.39 12.79z"/><path style="clip-path:url(#SVGID_9_);fill:#a180ff" d="m18.73 119.18 7.23-12.52h.08l-7.31 12.66zM18.73 119.05l7.15-12.39h.08l-7.23 12.52z"/><path style="clip-path:url(#SVGID_9_);fill:#a180ff" d="m18.73 118.91 7.08-12.25h.07l-7.15 12.39zM18.73 118.78l7-12.12h.08l-7.08 12.25zM18.73 118.64l6.92-11.98h.08l-7 12.12z"/><path style="clip-path:url(#SVGID_9_);fill:#a180ff" d="m18.73 118.51 6.84-11.85h.08l-6.92 11.98zM18.73 118.37l6.76-11.71h.08l-6.84 11.85z"/><path style="clip-path:url(#SVGID_9_);fill:#a180ff" d="m18.73 118.24 6.69-11.58h.07l-6.76 11.71zM18.73 118.1l6.61-11.44h.08l-6.69 11.58z"/><path style="clip-path:url(#SVGID_9_);fill:#a180ff" d="m18.73 117.97 6.53-11.31h.08l-6.61 11.44zM18.73 117.83l6.45-11.17h.08l-6.53 11.31z"/><path style="clip-path:url(#SVGID_9_);fill:#a180ff" d="m18.73 117.7 6.38-11.04h.07l-6.45 11.17zM18.73 117.56l6.3-10.9h.08l-6.38 11.04z"/><path style="clip-path:url(#SVGID_9_);fill:#a180ff" d="m18.73 117.43 6.22-10.77h.08l-6.3 10.9zM24.95 106.66l-6.22 10.77v-10.77z"/></g><g><path class="st0" d="M55.19 160.01c-.13 0-.27-.03-.39-.08L14 143.29c-.28-.12-.5-.35-.59-.63l-.96-2.88a1.045 1.045 0 0 1 1.98-.66l.81 2.43 39.95 16.29 91.47-39.7c.22-.4.7-1.42.78-3.07l4.77-92-2-1.12c-.5-.28-.68-.92-.4-1.42.28-.5.92-.68 1.42-.4l2.56 1.44c.34.19.55.57.53.96l-4.8 92.65c-.15 2.82-1.22 4.27-1.34 4.43-.11.14-.25.24-.41.31l-92.17 40c-.12.06-.26.09-.41.09z"/></g><g><path class="st0" d="M117.85 117.97c-.54 0-1-.42-1.04-.97-.04-.57.4-1.07.97-1.11l27.43-1.8c.57-.04 1.07.4 1.11.97.04.57-.4 1.07-.97 1.11l-27.43 1.8h-.07z"/></g><g><defs><path id="SVGID_6_" d="M167.61 93.54s-13.74 11.4-24.39 8.3l-.94-3.85-5.86 10.64 10.34 5.53-1.02-3.86c.01 0 15.61-4.3 21.87-16.76z"/></defs><use xlink:href="#SVGID_6_" style="overflow:visible;fill:#a180ff"/><clipPath id="SVGID_10_"><use xlink:href="#SVGID_6_" style="overflow:visible"/></clipPath><path style="clip-path:url(#SVGID_10_);fill:#a180ff" d="m167.61 100.28-6.61 6.61-13.34-13.35h19.95z"/><path style="clip-path:url(#SVGID_10_);fill:#a180ff" d="m161 106.89-.07.07-13.42-13.42h.15zM160.93 106.96l-.08.08-13.49-13.5h.15z"/><path style="clip-path:url(#SVGID_10_);fill:#a180ff" d="m160.85 107.04-.07.07-13.57-13.57h.15z"/><path style="clip-path:url(#SVGID_10_);fill:#a180ff" d="m160.78 107.11-.07.08-13.65-13.65h.15z"/><path style="clip-path:url(#SVGID_10_);fill:#a180ff" d="m160.71 107.19-.08.07-13.72-13.72h.15zM160.63 107.26l-.07.08-13.8-13.8h.15z"/><path style="clip-path:url(#SVGID_10_);fill:#a180ff" d="m160.56 107.34-.08.07-13.87-13.87h.15z"/><path style="clip-path:url(#SVGID_10_);fill:#a180ff" d="m160.48 107.41-.07.08-13.95-13.95h.15zM160.41 107.49l-.08.07-14.02-14.02h.15z"/><path style="clip-path:url(#SVGID_10_);fill:#a180ff" d="m160.33 107.56-.07.08-14.08-14.08.02-.02h.11z"/><path transform="rotate(-45.001 153.18 100.637)" style="clip-path:url(#SVGID_10_);fill:#a180ff" d="M153.13 90.68h.11v19.91h-.11z"/><path transform="rotate(-45.001 153.105 100.712)" style="clip-path:url(#SVGID_10_);fill:#a180ff" d="M153.05 90.76h.11v19.91h-.11z"/><path transform="rotate(-45.001 153.03 100.787)" style="clip-path:url(#SVGID_10_);fill:#a180ff" d="M152.98 90.83h.11v19.91h-.11z"/><path transform="rotate(-45.001 152.956 100.862)" style="clip-path:url(#SVGID_10_);fill:#a180ff" d="M152.9 90.9h.11v19.91h-.11z"/><path style="clip-path:url(#SVGID_10_);fill:#a180ff" d="m159.96 107.94-.08.07-14.08-14.08.08-.07z"/><path transform="rotate(-45.041 152.797 101.01)" style="clip-path:url(#SVGID_10_);fill:#a180ff" d="M152.75 91.05h.11v19.91h-.11z"/><path transform="rotate(-45.001 152.731 101.086)" style="clip-path:url(#SVGID_10_);fill:#a180ff" d="M152.68 91.13h.11v19.91h-.11z"/><path style="clip-path:url(#SVGID_10_);fill:#a180ff" d="m159.73 108.16-.07.07-14.08-14.07.08-.08zM159.66 108.23l-.08.08-14.07-14.08.07-.07z"/><path style="clip-path:url(#SVGID_10_);fill:#a180ff" d="m159.58 108.31-.07.07-14.08-14.07.08-.08z"/><path transform="rotate(-45.077 152.422 101.376)" style="clip-path:url(#SVGID_10_);fill:#a180ff" d="M152.38 91.43h.11v19.91h-.11z"/><path transform="rotate(-45.041 152.349 101.458)" style="clip-path:url(#SVGID_10_);fill:#a180ff" d="M152.31 91.5h.11v19.91h-.11z"/><path transform="rotate(-45.001 152.283 101.534)" style="clip-path:url(#SVGID_10_);fill:#a180ff" d="M152.23 91.58h.11v19.91h-.11z"/><path transform="rotate(-44.96 152.217 101.611)" style="clip-path:url(#SVGID_10_);fill:#a180ff" d="M152.16 91.65h.11v19.91h-.11z"/><path transform="rotate(-44.923 152.126 101.676)" style="clip-path:url(#SVGID_10_);fill:#a180ff" d="M152.08 91.73h.11v19.91h-.11z"/><path transform="rotate(-45.001 152.058 101.759)" style="clip-path:url(#SVGID_10_);fill:#a180ff" d="M152.01 91.8h.11v19.91h-.11z"/><path transform="rotate(-45.001 151.984 101.834)" style="clip-path:url(#SVGID_10_);fill:#a180ff" d="M151.93 91.88h.11v19.91h-.11z"/><path transform="rotate(-45.001 151.909 101.908)" style="clip-path:url(#SVGID_10_);fill:#a180ff" d="M151.86 91.95h.11v19.91h-.11z"/><path transform="rotate(-45.001 151.834 101.983)" style="clip-path:url(#SVGID_10_);fill:#a180ff" d="M151.78 92.03h.11v19.91h-.11z"/><path transform="rotate(-44.96 151.768 102.06)" style="clip-path:url(#SVGID_10_);fill:#a180ff" d="M151.71 92.1h.11v19.91h-.11z"/><path style="clip-path:url(#SVGID_10_);fill:#a180ff" d="m158.76 109.13-.07.08-14.08-14.08.07-.08z"/><path style="clip-path:url(#SVGID_10_);fill:#a180ff" d="m158.69 109.21-.08.07-14.08-14.08.08-.07z"/><path transform="rotate(-44.923 151.528 102.274)" style="clip-path:url(#SVGID_10_);fill:#a180ff" d="M151.48 92.33h.11v19.91h-.11z"/><path style="clip-path:url(#SVGID_10_);fill:#a180ff" d="m158.54 109.36-.08.07-14.08-14.08.08-.07z"/><path transform="rotate(-45.001 151.385 102.432)" style="clip-path:url(#SVGID_10_);fill:#a180ff" d="M151.33 92.48h.11v19.91h-.11z"/><path transform="rotate(-45.001 151.31 102.506)" style="clip-path:url(#SVGID_10_);fill:#a180ff" d="M151.26 92.55h.11v19.91h-.11z"/><path style="clip-path:url(#SVGID_10_);fill:#a180ff" d="m158.31 109.58-.07.08-14.08-14.08.07-.08z"/><path style="clip-path:url(#SVGID_10_);fill:#a180ff" d="m158.24 109.66-.08.07-14.07-14.08.07-.07z"/><path transform="rotate(-45.001 151.086 102.73)" style="clip-path:url(#SVGID_10_);fill:#a180ff" d="M151.03 92.77h.11v19.91h-.11z"/><path transform="rotate(-45.001 151.012 102.806)" style="clip-path:url(#SVGID_10_);fill:#a180ff" d="M150.96 92.85h.11v19.91h-.11z"/><path transform="rotate(-45.001 150.937 102.88)" style="clip-path:url(#SVGID_10_);fill:#a180ff" d="M150.88 92.92h.11v19.91h-.11z"/><path transform="rotate(-45.001 150.862 102.955)" style="clip-path:url(#SVGID_10_);fill:#a180ff" d="M150.81 93h.11v19.91h-.11z"/><path style="clip-path:url(#SVGID_10_);fill:#a180ff" d="m157.86 110.03-.07.07-14.08-14.07.08-.08zM157.79 110.1l-.08.08-14.07-14.08.07-.07z"/><path style="clip-path:url(#SVGID_10_);fill:#a180ff" d="m157.71 110.18-.07.07-14.08-14.07.08-.08zM157.64 110.25l-.08.08-14.07-14.08.07-.07z"/><path style="clip-path:url(#SVGID_10_);fill:#a180ff" d="m157.56 110.33-.07.07-14.08-14.08.08-.07z"/><path transform="rotate(-45.041 150.405 103.402)" style="clip-path:url(#SVGID_10_);fill:#a180ff" d="M150.36 93.45h.11v19.91h-.11z"/><path transform="rotate(-45.001 150.339 103.478)" style="clip-path:url(#SVGID_10_);fill:#a180ff" d="M150.29 93.52h.11v19.91h-.11z"/><path transform="rotate(-44.96 150.273 103.555)" style="clip-path:url(#SVGID_10_);fill:#a180ff" d="M150.21 93.6h.11v19.91h-.11z"/><path transform="rotate(-45.001 150.19 103.628)" style="clip-path:url(#SVGID_10_);fill:#a180ff" d="M150.14 93.67h.11v19.91h-.11z"/><path transform="rotate(-45.041 150.106 103.701)" style="clip-path:url(#SVGID_10_);fill:#a180ff" d="M150.06 93.75h.11v19.91h-.11z"/><path transform="rotate(-45.001 150.04 103.778)" style="clip-path:url(#SVGID_10_);fill:#a180ff" d="M149.99 93.82h.11v19.91h-.11z"/><path transform="rotate(-44.96 149.974 103.854)" style="clip-path:url(#SVGID_10_);fill:#a180ff" d="M149.91 93.9h.11v19.91h-.11z"/><path transform="rotate(-45.041 149.881 103.925)" style="clip-path:url(#SVGID_10_);fill:#a180ff" d="M149.84 93.97h.11v19.91h-.11z"/><path transform="rotate(-44.96 149.824 104.004)" style="clip-path:url(#SVGID_10_);fill:#a180ff" d="M149.76 94.05h.11v19.91h-.11z"/><path style="clip-path:url(#SVGID_10_);fill:#a180ff" d="m156.82 111.08-.08.07-14.08-14.08.08-.07z"/><path style="clip-path:url(#SVGID_10_);fill:#a180ff" d="m156.74 111.15-.07.08-14.08-14.08.07-.08z"/><path transform="rotate(-44.692 149.598 104.224)" style="clip-path:url(#SVGID_10_);fill:#a180ff" d="M149.54 94.27h.11v19.91h-.11z"/><path style="clip-path:url(#SVGID_10_);fill:#a180ff" d="m156.59 111.3-.07.07-14.08-14.07.07-.08z"/><path transform="rotate(-45.001 149.441 104.376)" style="clip-path:url(#SVGID_10_);fill:#a180ff" d="M149.39 94.42h.11v19.91h-.11z"/><path style="clip-path:url(#SVGID_10_);fill:#a180ff" d="m156.44 111.45-.07.07-14.08-14.07.08-.08z"/><path transform="rotate(-45.041 149.283 104.523)" style="clip-path:url(#SVGID_10_);fill:#a180ff" d="M149.24 94.57h.11v19.91h-.11z"/><path transform="rotate(-45.001 149.217 104.6)" style="clip-path:url(#SVGID_10_);fill:#a180ff" d="M149.16 94.64h.11v19.91h-.11z"/><path transform="rotate(-45.001 149.142 104.675)" style="clip-path:url(#SVGID_10_);fill:#a180ff" d="M149.09 94.72h.11v19.91h-.11z"/><path style="clip-path:url(#SVGID_10_);fill:#a180ff" d="m156.14 111.75-.07.07-14.08-14.07.08-.08z"/><path style="clip-path:url(#SVGID_10_);fill:#a180ff" d="m156.07 111.82-.08.08-14.07-14.08.07-.07z"/><path transform="rotate(-45.001 148.918 104.9)" style="clip-path:url(#SVGID_10_);fill:#a180ff" d="M148.87 94.94h.11v19.91h-.11z"/><path transform="rotate(-45.001 148.843 104.974)" style="clip-path:url(#SVGID_10_);fill:#a180ff" d="M148.79 95.02h.11v19.91h-.11z"/><path transform="rotate(-44.887 148.764 105.047)" style="clip-path:url(#SVGID_10_);fill:#a180ff" d="M148.72 95.09h.11V115h-.11z"/><path style="clip-path:url(#SVGID_10_);fill:#a180ff" d="m155.77 112.12-.07.08-14.08-14.08.07-.08zM155.7 112.2l-.08.07-14.08-14.08.08-.07z"/><path style="clip-path:url(#SVGID_10_);fill:#a180ff" d="m155.62 112.27-.07.08-14.08-14.08.07-.08z"/><path transform="rotate(-45.001 148.47 105.348)" style="clip-path:url(#SVGID_10_);fill:#a180ff" d="M148.42 95.39h.11v19.91h-.11z"/><path transform="rotate(-44.96 148.404 105.425)" style="clip-path:url(#SVGID_10_);fill:#a180ff" d="M148.34 95.47h.11v19.91h-.11z"/><path transform="rotate(-45.041 148.311 105.495)" style="clip-path:url(#SVGID_10_);fill:#a180ff" d="M148.27 95.54h.11v19.91h-.11z"/><path transform="rotate(-45.001 148.245 105.572)" style="clip-path:url(#SVGID_10_);fill:#a180ff" d="M148.19 95.62h.11v19.91h-.11z"/><path transform="rotate(-45.001 148.17 105.647)" style="clip-path:url(#SVGID_10_);fill:#a180ff" d="M148.12 95.69h.11v19.91h-.11z"/><path transform="rotate(-45.077 148.085 105.712)" style="clip-path:url(#SVGID_10_);fill:#a180ff" d="M148.04 95.76h.11v19.91h-.11z"/><path transform="rotate(-45.001 148.02 105.796)" style="clip-path:url(#SVGID_10_);fill:#a180ff" d="M147.97 95.84h.11v19.91h-.11z"/><path transform="rotate(-45.001 147.946 105.871)" style="clip-path:url(#SVGID_10_);fill:#a180ff" d="M147.89 95.91h.11v19.91h-.11z"/><path transform="rotate(-45.041 147.863 105.944)" style="clip-path:url(#SVGID_10_);fill:#a180ff" d="M147.82 95.99h.11v19.91h-.11z"/><path style="clip-path:url(#SVGID_10_);fill:#a180ff" d="m154.87 113.02-.07.07-14.08-14.07.08-.08z"/><path transform="rotate(-45.001 147.722 106.095)" style="clip-path:url(#SVGID_10_);fill:#a180ff" d="M147.67 96.14h.11v19.91h-.11z"/><path transform="rotate(-45.001 147.647 106.17)" style="clip-path:url(#SVGID_10_);fill:#a180ff" d="M147.59 96.21h.11v19.91h-.11z"/><path transform="rotate(-45.077 147.562 106.236)" style="clip-path:url(#SVGID_10_);fill:#a180ff" d="M147.52 96.29h.11v19.91h-.11z"/><path transform="rotate(-45.041 147.489 106.318)" style="clip-path:url(#SVGID_10_);fill:#a180ff" d="M147.45 96.36h.11v19.91h-.11z"/><path transform="rotate(-45.001 147.423 106.395)" style="clip-path:url(#SVGID_10_);fill:#a180ff" d="M147.37 96.44h.11v19.91h-.11z"/><path transform="rotate(-44.96 147.356 106.471)" style="clip-path:url(#SVGID_10_);fill:#a180ff" d="M147.3 96.51h.11v19.91h-.11z"/><path transform="rotate(-45.001 147.273 106.544)" style="clip-path:url(#SVGID_10_);fill:#a180ff" d="M147.22 96.59h.11v19.91h-.11z"/><path style="clip-path:url(#SVGID_10_);fill:#a180ff" d="m154.28 113.62-.08.07-14.08-14.07.08-.08z"/><path transform="rotate(-44.96 147.133 106.696)" style="clip-path:url(#SVGID_10_);fill:#a180ff" d="M147.07 96.74h.11v19.91h-.11z"/><path transform="rotate(-45.041 147.04 106.766)" style="clip-path:url(#SVGID_10_);fill:#a180ff" d="M147 96.81h.11v19.91H147z"/><path style="clip-path:url(#SVGID_10_);fill:#a180ff" d="m154.05 113.84-.07.08-14.08-14.08.07-.08zM153.98 113.92l-.08.07-14.08-14.08.08-.07z"/><path style="clip-path:url(#SVGID_10_);fill:#a180ff" d="m153.9 113.99-.07.08-14.08-14.08.07-.08z"/><path style="clip-path:url(#SVGID_10_);fill:#a180ff" d="m153.83 114.07-.08.07-14.08-14.08.08-.07zM153.75 114.14l-.02.02h-.11l-14.02-14.02.07-.08z"/><path style="clip-path:url(#SVGID_10_);fill:#a180ff" d="m153.47 114.16-13.95-13.95.08-.07 14.02 14.02zM153.32 114.16l-13.87-13.87.07-.08 13.95 13.95zM153.17 114.16l-13.8-13.8.08-.07 13.87 13.87z"/><path style="clip-path:url(#SVGID_10_);fill:#a180ff" d="m153.02 114.16-13.72-13.72.07-.08 13.8 13.8z"/><path style="clip-path:url(#SVGID_10_);fill:#a180ff" d="m152.87 114.16-13.64-13.65.07-.07 13.72 13.72zM152.72 114.16l-13.57-13.57.08-.08 13.64 13.65zM152.57 114.16l-13.49-13.5.07-.07 13.57 13.57z"/><path style="clip-path:url(#SVGID_10_);fill:#a180ff" d="M152.42 114.16 139 100.74l.08-.08 13.49 13.5zM152.27 114.16l-13.34-13.35.07-.07 13.42 13.42z"/><path style="clip-path:url(#SVGID_10_);fill:#a180ff" d="m152.12 114.16-13.27-13.27.08-.08 13.34 13.35z"/><path style="clip-path:url(#SVGID_10_);fill:#a180ff" d="m151.97 114.16-13.19-13.2.07-.07 13.27 13.27z"/><path style="clip-path:url(#SVGID_10_);fill:#a180ff" d="m151.83 114.16-13.13-13.12.08-.08 13.19 13.2zM151.68 114.16l-13.05-13.05.07-.07 13.13 13.12z"/><path style="clip-path:url(#SVGID_10_);fill:#a180ff" d="m151.53 114.16-12.98-12.97.08-.08 13.05 13.05zM151.38 114.16l-12.9-12.9.07-.07 12.98 12.97zM151.23 114.16l-12.83-12.83.08-.07 12.9 12.9z"/><path style="clip-path:url(#SVGID_10_);fill:#a180ff" d="m151.08 114.16-12.75-12.75.07-.08 12.83 12.83z"/><path style="clip-path:url(#SVGID_10_);fill:#a180ff" d="m150.93 114.16-12.68-12.68.08-.07 12.75 12.75zM150.78 114.16l-12.6-12.6.07-.08 12.68 12.68z"/><path style="clip-path:url(#SVGID_10_);fill:#a180ff" d="m150.63 114.16-12.53-12.53.08-.07 12.6 12.6z"/><path style="clip-path:url(#SVGID_10_);fill:#a180ff" d="m150.48 114.16-12.45-12.45.07-.08 12.53 12.53z"/><path style="clip-path:url(#SVGID_10_);fill:#a180ff" d="m150.33 114.16-12.38-12.38.08-.07 12.45 12.45zM150.18 114.16l-12.3-12.3.07-.08 12.38 12.38z"/><path style="clip-path:url(#SVGID_10_);fill:#a180ff" d="m150.03 114.16-12.23-12.23.08-.07 12.3 12.3zM149.88 114.16l-12.15-12.15.07-.08 12.23 12.23zM149.73 114.16l-12.08-12.08.08-.07 12.15 12.15z"/><path style="clip-path:url(#SVGID_10_);fill:#a180ff" d="m149.58 114.16-12-12 .07-.08 12.08 12.08z"/><path style="clip-path:url(#SVGID_10_);fill:#a180ff" d="m149.43 114.16-11.92-11.93.07-.07 12 12zM149.28 114.16l-11.85-11.85.08-.08 11.92 11.93zM149.13 114.16l-11.77-11.78.07-.07 11.85 11.85z"/><path style="clip-path:url(#SVGID_10_);fill:#a180ff" d="m148.98 114.16-11.7-11.7.08-.08 11.77 11.78zM148.83 114.16l-11.62-11.63.07-.07 11.7 11.7z"/><path style="clip-path:url(#SVGID_10_);fill:#a180ff" d="m148.68 114.16-11.55-11.55.08-.08 11.62 11.63z"/><path style="clip-path:url(#SVGID_10_);fill:#a180ff" d="m148.54 114.16-11.48-11.48.07-.07 11.55 11.55z"/><path style="clip-path:url(#SVGID_10_);fill:#a180ff" d="m148.39 114.16-11.41-11.4.08-.08 11.48 11.48z"/><path style="clip-path:url(#SVGID_10_);fill:#a180ff" d="m136.43 103.31.55-.55 11.41 11.4h-11.96z"/></g><g><defs><path id="SVGID_5_" d="M137.81 45.67S132.56 67.2 119.65 72l-3.78-3.14 2.04 14.94 14.4-2.15-3.87-3.09c-.01 0 12.36-15.83 9.37-32.89z"/></defs><use xlink:href="#SVGID_5_" style="overflow:visible;fill:#a180ff"/><clipPath id="SVGID_11_"><use xlink:href="#SVGID_5_" style="overflow:visible"/></clipPath><path style="clip-path:url(#SVGID_11_);fill:#a180ff" d="m140.8 63.82-24.05-3.55 2.15-14.6h21.9z"/><path style="clip-path:url(#SVGID_11_);fill:#a180ff" d="m140.8 63.95-24.07-3.55.02-.13 24.05 3.55z"/><path style="clip-path:url(#SVGID_11_);fill:#a180ff" d="m140.8 64.08-24.09-3.55.02-.13 24.07 3.55z"/><path style="clip-path:url(#SVGID_11_);fill:#a180ff" d="m140.8 64.22-24.11-3.56.02-.13 24.09 3.55z"/><path style="clip-path:url(#SVGID_11_);fill:#a180ff" d="m140.8 64.35-24.13-3.56.02-.13 24.11 3.56zM140.8 64.48l-24.15-3.56.02-.13 24.13 3.56z"/><path style="clip-path:url(#SVGID_11_);fill:#a180ff" d="m140.8 64.62-24.17-3.57.02-.13 24.15 3.56z"/><path style="clip-path:url(#SVGID_11_);fill:#a180ff" d="m140.8 64.75-24.19-3.57.02-.13 24.17 3.57z"/><path style="clip-path:url(#SVGID_11_);fill:#a180ff" d="m140.8 64.88-24.21-3.57.02-.13 24.19 3.57zM140.8 65.01l-24.23-3.57.02-.13 24.21 3.57z"/><path style="clip-path:url(#SVGID_11_);fill:#a180ff" d="m140.8 65.15-24.25-3.58.02-.13 24.23 3.57z"/><path style="clip-path:url(#SVGID_11_);fill:#a180ff" d="m140.8 65.28-24.26-3.58.01-.13 24.25 3.58z"/><path style="clip-path:url(#SVGID_11_);fill:#a180ff" d="m140.8 65.32-.01.09-24.27-3.58.02-.13 24.26 3.58z"/><path transform="rotate(-81.309 128.645 63.685)" style="clip-path:url(#SVGID_11_);fill:#a180ff" d="M128.58 51.42h.13v24.53h-.13z"/><path transform="rotate(-81.576 128.619 63.816)" style="clip-path:url(#SVGID_11_);fill:#a180ff" d="M128.56 51.55h.13v24.53h-.13z"/><path transform="rotate(-81.767 128.6 63.944)" style="clip-path:url(#SVGID_11_);fill:#a180ff" d="M128.54 51.68h.13v24.53h-.13z"/><path transform="rotate(-81.524 128.587 64.07)" style="clip-path:url(#SVGID_11_);fill:#a180ff" d="M128.52 51.81h.13v24.53h-.13z"/><path transform="rotate(-81.594 128.557 64.201)" style="clip-path:url(#SVGID_11_);fill:#a180ff" d="M128.5 51.94h.13v24.53h-.13z"/><path transform="rotate(-81.732 128.55 64.333)" style="clip-path:url(#SVGID_11_);fill:#a180ff" d="M128.48 52.07h.13V76.6h-.13z"/><path transform="rotate(-81.634 128.525 64.46)" style="clip-path:url(#SVGID_11_);fill:#a180ff" d="M128.46 52.2h.13v24.53h-.13z"/><path transform="rotate(-81.379 128.504 64.594)" style="clip-path:url(#SVGID_11_);fill:#a180ff" d="M128.44 52.33h.13v24.53h-.13z"/><path style="clip-path:url(#SVGID_11_);fill:#a180ff" d="m140.63 66.45-.01.13L116.34 63l.02-.13z"/><path style="clip-path:url(#SVGID_11_);fill:#a180ff" d="m140.62 66.58-.02.13-24.27-3.58.01-.13z"/><path transform="rotate(-81.634 128.448 64.98)" style="clip-path:url(#SVGID_11_);fill:#a180ff" d="M128.39 52.72h.13v24.53h-.13z"/><path transform="rotate(-81.634 128.429 65.11)" style="clip-path:url(#SVGID_11_);fill:#a180ff" d="M128.37 52.85h.13v24.53h-.13z"/><path transform="rotate(-81.634 128.41 65.24)" style="clip-path:url(#SVGID_11_);fill:#a180ff" d="M128.35 52.98h.13v24.53h-.13z"/><path transform="rotate(-81.594 128.385 65.37)" style="clip-path:url(#SVGID_11_);fill:#a180ff" d="M128.33 53.11h.13v24.53h-.13z"/><path transform="rotate(-81.622 128.38 65.504)" style="clip-path:url(#SVGID_11_);fill:#a180ff" d="M128.31 53.24h.13v24.53h-.13z"/><path transform="rotate(-81.518 128.351 65.63)" style="clip-path:url(#SVGID_11_);fill:#a180ff" d="M128.29 53.37h.13V77.9h-.13z"/><path transform="rotate(-81.622 128.34 65.763)" style="clip-path:url(#SVGID_11_);fill:#a180ff" d="M128.27 53.49h.13v24.53h-.13z"/><path transform="rotate(-81.721 128.318 65.889)" style="clip-path:url(#SVGID_11_);fill:#a180ff" d="M128.25 53.62h.13v24.53h-.13z"/><path transform="rotate(-81.657 128.294 66.025)" style="clip-path:url(#SVGID_11_);fill:#a180ff" d="M128.23 53.75h.13v24.53h-.13z"/><path transform="rotate(-81.616 128.279 66.153)" style="clip-path:url(#SVGID_11_);fill:#a180ff" d="M128.21 53.88h.13v24.53h-.13z"/><path transform="rotate(-81.576 128.254 66.284)" style="clip-path:url(#SVGID_11_);fill:#a180ff" d="M128.19 54.01h.13v24.53h-.13z"/><path style="clip-path:url(#SVGID_11_);fill:#a180ff" d="m140.39 68.14-.02.13-24.28-3.58.02-.13z"/><path transform="rotate(-81.709 128.228 66.544)" style="clip-path:url(#SVGID_11_);fill:#a180ff" d="M128.16 54.27h.13V78.8h-.13z"/><path transform="rotate(-81.49 128.197 66.67)" style="clip-path:url(#SVGID_11_);fill:#a180ff" d="M128.14 54.4h.13v24.53h-.13z"/><path transform="rotate(-81.657 128.178 66.804)" style="clip-path:url(#SVGID_11_);fill:#a180ff" d="M128.12 54.53h.13v24.53h-.13z"/><path style="clip-path:url(#SVGID_11_);fill:#a180ff" d="m140.31 68.66-.02.13-24.27-3.59.02-.13z"/><path transform="rotate(-81.634 128.141 67.057)" style="clip-path:url(#SVGID_11_);fill:#a180ff" d="M128.08 54.79h.13v24.53h-.13z"/><path transform="rotate(-81.506 128.129 67.193)" style="clip-path:url(#SVGID_11_);fill:#a180ff" d="M128.06 54.92h.13v24.53h-.13z"/><path transform="rotate(-81.634 128.103 67.317)" style="clip-path:url(#SVGID_11_);fill:#a180ff" d="M128.04 55.05h.13v24.53h-.13z"/><path transform="rotate(-81.634 128.084 67.447)" style="clip-path:url(#SVGID_11_);fill:#a180ff" d="M128.02 55.18h.13v24.53h-.13z"/><path transform="rotate(-81.379 128.063 67.581)" style="clip-path:url(#SVGID_11_);fill:#a180ff" d="M128 55.31h.13v24.53H128z"/><path style="clip-path:url(#SVGID_11_);fill:#a180ff" d="m140.19 69.44-.02.13-24.27-3.59.02-.13z"/><path transform="rotate(-81.622 128.034 67.841)" style="clip-path:url(#SVGID_11_);fill:#a180ff" d="M127.96 55.57h.13V80.1h-.13z"/><path transform="rotate(-81.657 128.006 67.972)" style="clip-path:url(#SVGID_11_);fill:#a180ff" d="M127.94 55.7h.13v24.53h-.13z"/><path style="clip-path:url(#SVGID_11_);fill:#a180ff" d="m140.14 69.83-.02.13-24.26-3.58V66.24z"/><path style="clip-path:url(#SVGID_11_);fill:#a180ff" d="m140.12 69.96-.02.13-24.24-3.58v-.13zM140.1 70.09l-.02.13-24.22-3.58v-.13z"/><path style="clip-path:url(#SVGID_11_);fill:#a180ff" d="m140.08 70.22-.02.13-24.2-3.58v-.13zM140.06 70.35l-.02.12-24.18-3.56v-.14z"/><path style="clip-path:url(#SVGID_11_);fill:#a180ff" d="m140.04 70.47-.02.13-24.16-3.56v-.13z"/><path style="clip-path:url(#SVGID_11_);fill:#a180ff" d="m140.02 70.6-.02.13-24.14-3.56v-.13zM140 70.73l-.02.13-24.12-3.56v-.13z"/><path style="clip-path:url(#SVGID_11_);fill:#a180ff" d="m139.98 70.86-.02.13-24.1-3.55v-.14z"/><path style="clip-path:url(#SVGID_11_);fill:#a180ff" d="m139.96 70.99-.02.13-24.08-3.55v-.13zM139.94 71.12l-.01.13-24.07-3.55v-.13z"/><path style="clip-path:url(#SVGID_11_);fill:#a180ff" d="m139.93 71.25-.02.13-24.05-3.54v-.14zM139.91 71.38l-.02.13-24.03-3.54v-.13zM139.89 71.51l-.02.13-24.01-3.54v-.13z"/><path style="clip-path:url(#SVGID_11_);fill:#a180ff" d="m139.87 71.64-.02.13-23.99-3.54v-.13zM139.85 71.77l-.02.13-23.97-3.53v-.14zM139.83 71.9l-.02.13-23.95-3.53v-.13zM139.81 72.03l-.02.13-23.93-3.53v-.13z"/><path style="clip-path:url(#SVGID_11_);fill:#a180ff" d="m139.79 72.16-.02.13-23.91-3.53v-.13zM139.77 72.29l-.02.13-23.89-3.52v-.14zM139.75 72.42l-.02.13-23.87-3.52v-.13z"/><path style="clip-path:url(#SVGID_11_);fill:#a180ff" d="m139.73 72.55-.02.13-23.85-3.52v-.13z"/><path style="clip-path:url(#SVGID_11_);fill:#a180ff" d="m139.71 72.68-.01.13-23.84-3.51v-.14zM139.7 72.81l-.02.13-23.82-3.51v-.13z"/><path style="clip-path:url(#SVGID_11_);fill:#a180ff" d="m139.68 72.94-.02.13-23.8-3.51v-.13zM139.66 73.07l-.02.13-23.78-3.51v-.13zM139.64 73.2l-.02.13-23.76-3.5v-.14z"/><path style="clip-path:url(#SVGID_11_);fill:#a180ff" d="m139.62 73.33-.02.13-23.74-3.5v-.13zM139.6 73.46l-.02.13-23.72-3.5v-.13zM139.58 73.59l-.02.13-23.7-3.5v-.13zM139.56 73.72l-.02.13-23.68-3.49v-.14z"/><path style="clip-path:url(#SVGID_11_);fill:#a180ff" d="m139.54 73.85-.02.13-23.66-3.49v-.13zM139.52 73.98l-.02.13-23.64-3.49v-.13z"/><path style="clip-path:url(#SVGID_11_);fill:#a180ff" d="m139.5 74.11-.02.13-23.62-3.48v-.14z"/><path style="clip-path:url(#SVGID_11_);fill:#a180ff" d="m139.48 74.24-.01.13-23.61-3.48v-.13zM139.47 74.37l-.02.13-23.59-3.48v-.13z"/><path style="clip-path:url(#SVGID_11_);fill:#a180ff" d="m139.45 74.5-.02.13-23.57-3.48v-.13z"/><path style="clip-path:url(#SVGID_11_);fill:#a180ff" d="m139.43 74.63-.02.13-23.55-3.47v-.14zM139.41 74.76l-.02.13-23.53-3.47v-.13zM139.39 74.89l-.02.13-23.51-3.47v-.13z"/><path style="clip-path:url(#SVGID_11_);fill:#a180ff" d="m139.37 75.02-.02.13-23.49-3.47v-.13zM139.35 75.15l-.02.13-23.47-3.46v-.14z"/><path style="clip-path:url(#SVGID_11_);fill:#a180ff" d="m139.33 75.28-.02.13-23.45-3.46v-.13zM139.31 75.41l-.02.13-23.43-3.46v-.13zM139.29 75.54l-.02.13-23.41-3.46v-.13z"/><path style="clip-path:url(#SVGID_11_);fill:#a180ff" d="m139.27 75.67-.02.13-23.39-3.45v-.14z"/><path style="clip-path:url(#SVGID_11_);fill:#a180ff" d="m139.25 75.8-.01.13-23.38-3.45v-.13zM139.24 75.93l-.02.13-23.36-3.45v-.13zM139.22 76.06l-.02.13-23.34-3.44v-.14z"/><path style="clip-path:url(#SVGID_11_);fill:#a180ff" d="m139.2 76.19-.02.13-23.32-3.44v-.13z"/><path style="clip-path:url(#SVGID_11_);fill:#a180ff" d="m139.18 76.32-.02.13-23.3-3.44v-.13zM139.16 76.45l-.02.13-23.28-3.44v-.13z"/><path style="clip-path:url(#SVGID_11_);fill:#a180ff" d="m139.14 76.58-.02.13-23.26-3.43v-.14z"/><path style="clip-path:url(#SVGID_11_);fill:#a180ff" d="m139.12 76.71-.02.13-23.24-3.43v-.13zM139.1 76.84l-.02.13-23.22-3.43v-.13z"/><path style="clip-path:url(#SVGID_11_);fill:#a180ff" d="m139.08 76.97-.02.13-23.2-3.43v-.13zM139.06 77.1l-.02.13-23.18-3.42v-.14zM139.04 77.23l-.02.13-23.16-3.42v-.13z"/><path style="clip-path:url(#SVGID_11_);fill:#a180ff" d="m139.02 77.36-.01.13-23.15-3.42v-.13zM139.01 77.49l-.02.13-23.13-3.41v-.14zM138.99 77.62l-.02.13-23.11-3.41v-.13zM138.97 77.75l-.02.13-23.09-3.41v-.13z"/><path style="clip-path:url(#SVGID_11_);fill:#a180ff" d="m138.95 77.88-.02.13-23.07-3.41v-.13zM138.93 78.01l-.02.13-23.05-3.4v-.14zM138.91 78.14l-.02.13-23.03-3.4v-.13zM138.89 78.27l-.02.13-23.01-3.4v-.13zM138.87 78.4l-.02.13-22.99-3.4V75zM138.85 78.53l-.02.13-22.97-3.39v-.14z"/><path style="clip-path:url(#SVGID_11_);fill:#a180ff" d="m138.83 78.66-.02.13-22.95-3.39v-.13zM138.81 78.79l-.02.13-22.93-3.39v-.13z"/><path style="clip-path:url(#SVGID_11_);fill:#a180ff" d="m138.79 78.92-.01.13-22.92-3.39v-.13zM138.78 79.05l-.02.13-22.9-3.38v-.14zM138.76 79.18l-.02.13-22.88-3.38v-.13z"/><path style="clip-path:url(#SVGID_11_);fill:#a180ff" d="m138.74 79.31-.02.13-22.86-3.38v-.13z"/><path style="clip-path:url(#SVGID_11_);fill:#a180ff" d="m138.72 79.44-.02.13-22.84-3.37v-.14z"/><path style="clip-path:url(#SVGID_11_);fill:#a180ff" d="m138.7 79.57-.02.13-22.82-3.37v-.13zM138.68 79.7l-.02.13-22.8-3.37v-.13zM138.66 79.83l-.02.12-22.78-3.36v-.13zM138.64 79.95l-.02.14-22.76-3.36v-.14z"/><path style="clip-path:url(#SVGID_11_);fill:#a180ff" d="m138.62 80.09-.02.13-22.74-3.36v-.13zM138.6 80.22l-.02.12-22.72-3.35v-.13z"/><path style="clip-path:url(#SVGID_11_);fill:#a180ff" d="m138.58 80.34-.02.13-22.7-3.35v-.13z"/><path style="clip-path:url(#SVGID_11_);fill:#a180ff" d="m138.56 80.47-.01.13-22.69-3.34v-.14zM138.55 80.6l-.02.13-22.67-3.34v-.13zM138.53 80.73l-.02.13-22.65-3.34v-.13z"/><path style="clip-path:url(#SVGID_11_);fill:#a180ff" d="m138.51 80.86-.02.13-22.63-3.33v-.14z"/><path style="clip-path:url(#SVGID_11_);fill:#a180ff" d="m138.49 80.99-.02.13-22.61-3.33v-.13zM138.47 81.12l-.4 2.68h-22.21v-6.01z"/></g><g><defs><path id="SVGID_4_" d="M101.21 64.38s-3.32 13.61-11.48 16.64l-2.39-1.99 1.29 9.44 9.1-1.36-2.45-1.95c0 .01 7.82-10 5.93-20.78z"/></defs><use xlink:href="#SVGID_4_" style="overflow:visible;fill:#a180ff"/><clipPath id="SVGID_12_"><use xlink:href="#SVGID_4_" style="overflow:visible"/></clipPath><path style="clip-path:url(#SVGID_12_);fill:#a180ff" d="m103.1 75.85-15.34-2.26 1.36-9.21h13.98zM103.1 75.94l-15.35-2.27.01-.08 15.34 2.26zM103.1 76.02l-15.37-2.27.02-.08 15.35 2.27z"/><path style="clip-path:url(#SVGID_12_);fill:#a180ff" d="m103.1 76.1-15.38-2.27.01-.08 15.37 2.27z"/><path style="clip-path:url(#SVGID_12_);fill:#a180ff" d="m103.1 76.19-15.39-2.27.01-.09 15.38 2.27z"/><path style="clip-path:url(#SVGID_12_);fill:#a180ff" d="M103.1 76.27 87.7 74l.01-.08 15.39 2.27z"/><path style="clip-path:url(#SVGID_12_);fill:#a180ff" d="m103.1 76.35-15.41-2.27.01-.08 15.4 2.27zM103.1 76.44l-15.43-2.28.02-.08 15.41 2.27z"/><path style="clip-path:url(#SVGID_12_);fill:#a180ff" d="m103.1 76.52-15.44-2.28.01-.08 15.43 2.28z"/><path style="clip-path:url(#SVGID_12_);fill:#a180ff" d="m103.1 76.61-15.45-2.28.01-.09 15.44 2.28z"/><path style="clip-path:url(#SVGID_12_);fill:#a180ff" d="m103.1 76.69-15.46-2.28.01-.08 15.45 2.28z"/><path style="clip-path:url(#SVGID_12_);fill:#a180ff" d="m103.1 76.77-15.48-2.28.02-.08 15.46 2.28z"/><path style="clip-path:url(#SVGID_12_);fill:#a180ff" d="m103.1 76.86-15.49-2.29.01-.08 15.48 2.28z"/><path style="clip-path:url(#SVGID_12_);fill:#a180ff" d="m103.1 76.94-15.5-2.29.01-.08 15.49 2.29z"/><path style="clip-path:url(#SVGID_12_);fill:#a180ff" d="m103.1 77.03-15.51-2.29.01-.09 15.5 2.29z"/><path style="clip-path:url(#SVGID_12_);fill:#a180ff" d="m103.1 77.11-15.52-2.29.01-.08 15.51 2.29zM103.1 77.19 87.56 74.9l.02-.08 15.52 2.29zM103.1 77.28l-15.55-2.3.01-.08 15.54 2.29z"/><path style="clip-path:url(#SVGID_12_);fill:#a180ff" d="m103.1 77.36-15.56-2.3.01-.08 15.55 2.3z"/><path style="clip-path:url(#SVGID_12_);fill:#a180ff" d="m103.1 77.45-15.57-2.3.01-.09 15.56 2.3z"/><path style="clip-path:url(#SVGID_12_);fill:#a180ff" d="m103.1 77.53-15.58-2.3.01-.08 15.57 2.3z"/><path style="clip-path:url(#SVGID_12_);fill:#a180ff" d="m103.1 77.61-15.6-2.3.02-.08 15.58 2.3z"/><path style="clip-path:url(#SVGID_12_);fill:#a180ff" d="m103.1 77.7-15.61-2.31.01-.08 15.6 2.3z"/><path style="clip-path:url(#SVGID_12_);fill:#a180ff" d="M103.1 77.75v.03l-15.62-2.31.01-.08 15.61 2.31z"/><path style="clip-path:url(#SVGID_12_);fill:#a180ff" d="m103.1 77.78-.01.08-15.62-2.3.01-.09z"/><path transform="rotate(-81.57 95.267 76.75)" style="clip-path:url(#SVGID_12_);fill:#a180ff" d="M95.23 68.86h.08v15.79h-.08z"/><path style="clip-path:url(#SVGID_12_);fill:#a180ff" d="m103.07 77.94-.01.09-15.62-2.31.02-.08z"/><path style="clip-path:url(#SVGID_12_);fill:#a180ff" d="m103.06 78.03-.01.08-15.62-2.31.01-.08z"/><path style="clip-path:url(#SVGID_12_);fill:#a180ff" d="m103.05 78.11-.01.08-15.62-2.3.01-.09z"/><path style="clip-path:url(#SVGID_12_);fill:#a180ff" d="m103.04 78.19-.01.08-15.62-2.3.01-.08z"/><path style="clip-path:url(#SVGID_12_);fill:#a180ff" d="m103.03 78.27-.02.08-15.61-2.3.01-.08z"/><path transform="rotate(-81.576 95.202 77.244)" style="clip-path:url(#SVGID_12_);fill:#a180ff" d="M95.16 69.35h.08v15.79h-.08z"/><path style="clip-path:url(#SVGID_12_);fill:#a180ff" d="m103 78.44-.01.08-15.62-2.31.01-.08z"/><path style="clip-path:url(#SVGID_12_);fill:#a180ff" d="m102.99 78.52-.01.08-15.62-2.3.01-.09z"/><path style="clip-path:url(#SVGID_12_);fill:#a180ff" d="m102.98 78.6-.02.08-15.61-2.3.01-.08zM102.96 78.68l-.01.09-15.61-2.31v-.02l.01-.06z"/><path style="clip-path:url(#SVGID_12_);fill:#a180ff" d="m102.95 78.77-.01.08-15.6-2.31v-.08zM102.94 78.85l-.01.08-15.59-2.3v-.09zM102.93 78.93l-.01.08-15.58-2.3v-.08z"/><path style="clip-path:url(#SVGID_12_);fill:#a180ff" d="m102.92 79.01-.02.08-15.56-2.29v-.09zM102.9 79.09l-.01.09-15.55-2.3v-.08z"/><path style="clip-path:url(#SVGID_12_);fill:#a180ff" d="m102.89 79.18-.01.08-15.54-2.3v-.08z"/><path style="clip-path:url(#SVGID_12_);fill:#a180ff" d="m102.88 79.26-.01.08-15.53-2.29v-.09z"/><path style="clip-path:url(#SVGID_12_);fill:#a180ff" d="m102.87 79.34-.01.08-15.52-2.29v-.08z"/><path style="clip-path:url(#SVGID_12_);fill:#a180ff" d="m102.86 79.42-.02.08-15.5-2.28v-.09z"/><path style="clip-path:url(#SVGID_12_);fill:#a180ff" d="m102.84 79.5-.01.09-15.49-2.29v-.08zM102.83 79.59l-.01.08-15.48-2.29v-.08z"/><path style="clip-path:url(#SVGID_12_);fill:#a180ff" d="m102.82 79.67-.01.08-15.47-2.28v-.09z"/><path style="clip-path:url(#SVGID_12_);fill:#a180ff" d="m102.81 79.75-.02.08-15.45-2.28v-.08z"/><path style="clip-path:url(#SVGID_12_);fill:#a180ff" d="m102.79 79.83-.01.08-15.44-2.28v-.08zM102.78 79.91l-.01.09-15.43-2.28v-.09zM102.77 80l-.01.08-15.42-2.28v-.08z"/><path style="clip-path:url(#SVGID_12_);fill:#a180ff" d="m102.76 80.08-.01.08-15.41-2.27v-.09z"/><path style="clip-path:url(#SVGID_12_);fill:#a180ff" d="m102.75 80.16-.02.08-15.39-2.27v-.08z"/><path style="clip-path:url(#SVGID_12_);fill:#a180ff" d="m102.73 80.24-.01.09-15.38-2.28v-.08zM102.72 80.33l-.01.08-15.37-2.27v-.09z"/><path style="clip-path:url(#SVGID_12_);fill:#a180ff" d="m102.71 80.41-.01.08-15.36-2.27v-.08z"/><path style="clip-path:url(#SVGID_12_);fill:#a180ff" d="m102.7 80.49-.01.08-15.35-2.26v-.09z"/><path style="clip-path:url(#SVGID_12_);fill:#a180ff" d="m102.69 80.57-.02.08-15.33-2.26v-.08zM102.67 80.65l-.01.09-15.32-2.27v-.08z"/><path style="clip-path:url(#SVGID_12_);fill:#a180ff" d="m102.66 80.74-.01.08-15.31-2.26v-.09z"/><path style="clip-path:url(#SVGID_12_);fill:#a180ff" d="m102.65 80.82-.01.08-15.3-2.26v-.08zM102.64 80.9l-.01.08-15.29-2.25v-.09z"/><path style="clip-path:url(#SVGID_12_);fill:#a180ff" d="m102.63 80.98-.02.08-15.27-2.25v-.08zM102.61 81.06l-.01.09-15.26-2.26v-.08z"/><path style="clip-path:url(#SVGID_12_);fill:#a180ff" d="m102.6 81.15-.01.08-15.25-2.25v-.09z"/><path style="clip-path:url(#SVGID_12_);fill:#a180ff" d="m102.59 81.23-.01.08-15.24-2.25v-.08z"/><path style="clip-path:url(#SVGID_12_);fill:#a180ff" d="m102.58 81.31-.02.08-15.22-2.25v-.08z"/><path style="clip-path:url(#SVGID_12_);fill:#a180ff" d="m102.56 81.39-.01.08-15.21-2.24v-.09zM102.55 81.47l-.01.09-15.2-2.25v-.08z"/><path style="clip-path:url(#SVGID_12_);fill:#a180ff" d="m102.54 81.56-.01.08-15.19-2.24v-.09z"/><path style="clip-path:url(#SVGID_12_);fill:#a180ff" d="m102.53 81.64-.01.08-15.18-2.24v-.08z"/><path style="clip-path:url(#SVGID_12_);fill:#a180ff" d="m102.52 81.72-.02.08-15.16-2.24v-.08z"/><path style="clip-path:url(#SVGID_12_);fill:#a180ff" d="m102.5 81.8-.01.08-15.15-2.23v-.09zM102.49 81.88l-.01.09-15.14-2.24v-.08z"/><path style="clip-path:url(#SVGID_12_);fill:#a180ff" d="m102.48 81.97-.01.08-15.13-2.23v-.09zM102.47 82.05l-.01.08-15.12-2.23v-.08z"/><path style="clip-path:url(#SVGID_12_);fill:#a180ff" d="m102.46 82.13-.02.08-15.1-2.23v-.08zM102.44 82.21l-.01.09-15.09-2.23v-.09z"/><path style="clip-path:url(#SVGID_12_);fill:#a180ff" d="m102.43 82.3-.01.08-15.08-2.23v-.08z"/><path style="clip-path:url(#SVGID_12_);fill:#a180ff" d="m102.42 82.38-.01.08-15.07-2.22v-.09zM102.41 82.46l-.01.08-15.06-2.22v-.08zM102.4 82.54l-.02.08-15.04-2.22v-.08zM102.38 82.62l-.01.09-15.03-2.22v-.09z"/><path style="clip-path:url(#SVGID_12_);fill:#a180ff" d="m102.37 82.71-.01.08-15.02-2.22v-.08zM102.36 82.79l-.01.08-15.01-2.21v-.09z"/><path style="clip-path:url(#SVGID_12_);fill:#a180ff" d="m102.35 82.87-.02.08-14.99-2.21v-.08zM102.33 82.95l-.01.08-14.98-2.21v-.08zM102.32 83.03l-.01.09-14.97-2.21v-.09z"/><path style="clip-path:url(#SVGID_12_);fill:#a180ff" d="m102.31 83.12-.01.08-14.96-2.21v-.08zM102.3 83.2l-.01.08-14.95-2.21v-.08z"/><path style="clip-path:url(#SVGID_12_);fill:#a180ff" d="m102.29 83.28-.02.08-14.93-2.2v-.09zM102.27 83.36l-.01.08-14.92-2.2v-.08z"/><path style="clip-path:url(#SVGID_12_);fill:#a180ff" d="m102.26 83.44-.01.09-14.91-2.2v-.09zM102.25 83.53l-.01.08-14.9-2.2v-.08zM102.24 83.61l-.01.08-14.89-2.2v-.08z"/><path style="clip-path:url(#SVGID_12_);fill:#a180ff" d="m102.23 83.69-.02.08-14.87-2.19v-.09zM102.21 83.77l-.01.09-14.86-2.2v-.08z"/><path style="clip-path:url(#SVGID_12_);fill:#a180ff" d="m102.2 83.86-.01.08-14.85-2.19v-.09zM102.19 83.94l-.01.08-14.84-2.19v-.08z"/><path style="clip-path:url(#SVGID_12_);fill:#a180ff" d="m102.18 84.02-.01.08-14.83-2.19v-.08z"/><path style="clip-path:url(#SVGID_12_);fill:#a180ff" d="m102.17 84.1-.02.08L87.34 82v-.09zM102.15 84.18l-.01.09-14.8-2.19V82z"/><path style="clip-path:url(#SVGID_12_);fill:#a180ff" d="m102.14 84.27-.01.08-14.79-2.19v-.08z"/><path style="clip-path:url(#SVGID_12_);fill:#a180ff" d="m102.13 84.35-.01.08-14.78-2.18v-.09zM102.12 84.43l-.02.08-14.76-2.18v-.08zM102.1 84.51l-.01.08-14.75-2.17v-.09z"/><path style="clip-path:url(#SVGID_12_);fill:#a180ff" d="m102.09 84.59-.01.09-14.74-2.18v-.08zM102.08 84.68l-.01.08-14.73-2.18v-.08z"/><path style="clip-path:url(#SVGID_12_);fill:#a180ff" d="m102.07 84.76-.01.08-14.72-2.17v-.09z"/><path style="clip-path:url(#SVGID_12_);fill:#a180ff" d="m102.06 84.84-.02.08-14.7-2.17v-.08z"/><path style="clip-path:url(#SVGID_12_);fill:#a180ff" d="m102.04 84.92-.01.08-14.69-2.16v-.09z"/><path style="clip-path:url(#SVGID_12_);fill:#a180ff" d="m102.03 85-.01.09-14.68-2.17v-.08z"/><path style="clip-path:url(#SVGID_12_);fill:#a180ff" d="m102.02 85.09-.01.08L87.34 83v-.08z"/><path style="clip-path:url(#SVGID_12_);fill:#a180ff" d="m102.01 85.17-.01.08-14.66-2.16V83z"/><path style="clip-path:url(#SVGID_12_);fill:#a180ff" d="m102 85.25-.02.08-14.64-2.16v-.08z"/><path style="clip-path:url(#SVGID_12_);fill:#a180ff" d="m101.98 85.33-.01.09-14.63-2.16v-.09zM101.97 85.42l-.01.08-14.62-2.16v-.08zM101.96 85.5l-.01.08-14.61-2.16v-.08z"/><path style="clip-path:url(#SVGID_12_);fill:#a180ff" d="m101.95 85.58-.02.08-14.59-2.15v-.09z"/><path style="clip-path:url(#SVGID_12_);fill:#a180ff" d="m101.93 85.66-.01.08-14.58-2.15v-.08zM101.92 85.74l-.01.09-14.57-2.16v-.08z"/><path style="clip-path:url(#SVGID_12_);fill:#a180ff" d="m101.91 85.83-.01.08-14.56-2.15v-.09z"/><path style="clip-path:url(#SVGID_12_);fill:#a180ff" d="m101.9 85.91-.01.08-14.55-2.15v-.08z"/><path style="clip-path:url(#SVGID_12_);fill:#a180ff" d="m101.89 85.99-.02.08-14.53-2.14v-.09z"/><path style="clip-path:url(#SVGID_12_);fill:#a180ff" d="m101.87 86.07-.01.08-14.52-2.14v-.08zM101.86 86.15l-.01.09-14.51-2.15v-.08z"/><path style="clip-path:url(#SVGID_12_);fill:#a180ff" d="m101.85 86.24-.01.08-14.5-2.14v-.09z"/><path style="clip-path:url(#SVGID_12_);fill:#a180ff" d="m101.84 86.32-.01.08-14.49-2.14v-.08zM101.83 86.4l-.02.08-14.47-2.13v-.09z"/><path style="clip-path:url(#SVGID_12_);fill:#a180ff" d="m101.81 86.48-.01.08-14.46-2.13v-.08zM101.8 86.56l-.01.09-14.45-2.14v-.08z"/><path style="clip-path:url(#SVGID_12_);fill:#a180ff" d="m101.79 86.65-.01.08-14.44-2.13v-.09z"/><path style="clip-path:url(#SVGID_12_);fill:#a180ff" d="m101.78 86.73-.01.08-14.43-2.13v-.08z"/><path style="clip-path:url(#SVGID_12_);fill:#a180ff" d="m101.77 86.81-.25 1.67H87.34v-3.8z"/></g><path class="st0" d="m62.75 127.2 1.95 1.49-.26-8.52-8.29 1.97 1.95 1.49-3.56 4.65 4.64 3.57zM87.27 131.68l2.43 1.86-.32-10.64-10.35 2.46 2.43 1.87-4.45 5.8 5.81 4.45z"/><g><path class="st0" d="m66.29 128.64.02.79 10.26 1.56 1.44-1.88-11.76-1.79zM62.75 127.2l1.95 1.49-.05-1.62-8.23-1.25-1.44 1.89 6.6 1zM78.37 131.26l8.25 1.26.65-.84 1.53 1.17.88.14-.06-2.12-9.81-1.49z"/><path class="st0" d="M151.34 20.2c-.28-.21-.65-.26-.98-.14L74.04 47.9c-.36.13-.63.46-.67.84l-7.15 55.32-20.88 20.34-32.33 14.09c-.38.17-.63.55-.62.97.01.42.26.8.65.95l41.28 16.48c.12.05.26.07.39.07.15 0 .29-.03.43-.09l48.63-21.91c.01 0 .02-.01.02-.01l41.91-18.88c.35-.16.59-.5.61-.89l5.44-94.09c.03-.34-.13-.68-.41-.89zm-48.4 112.7-11.71-1.78.06 2.11 8.43 1.28-45.02 20.28-38.57-15.39 29.94-13.05 7.1 1.08.09-.12 1.35-1.76-6.46-.98 19.51-19.01 64.92-7.6-29.64 34.94zm41.34-18.47-37.15 16.74 28.75-33.88c.28-.33.33-.79.12-1.16-.18-.34-.54-.55-.92-.55-.04 0-.08 0-.12.01l-66.57 7.79 6.95-53.73 74.24-27.08-5.3 91.86z"/></g></svg>