<svg version="1.1" id="圖層_1" xmlns="http://www.w3.org/2000/svg" x="0" y="0" viewBox="0 0 150 150" style="enable-background:new 0 0 150 150" xml:space="preserve"><style>.st0{fill:#00d0ff}</style><path class="st0" d="M131.24 131.22 18.79 75l112.45-56.22v2.58L23.96 75l107.29 53.64v2.58z"/><path class="st0" d="M40.01 84.16 21.37 75l18.64-9.16z"/><path class="st0" d="M41.17 63.98v22.04L18.76 75l22.41-11.02zm-2.32 18.33V67.69L23.99 75l14.86 7.31zM104.8 116.82l-8.59 2.86-47.38-23.69L45.15 87z"/><path class="st0" d="m43.08 84.76 64.51 32.26-11.46 3.82-48.14-24.07-4.91-12.01zM102 116.62 47.22 89.24l2.45 5.98 46.62 23.31 5.71-1.91z"/><g><path class="st0" d="m104.8 33.42-8.59-2.86-47.38 23.68-3.68 9z"/></g><g><path class="st0" d="M131.24 131.22 18.79 75l112.45-56.22v2.58L23.96 75l107.29 53.64v2.58z"/><path class="st0" d="M40.01 84.16 21.37 75l18.64-9.16z"/><path class="st0" d="M41.17 63.98v22.04L18.76 75l22.41-11.02zm-2.32 18.33V67.69L23.99 75l14.86 7.31z"/></g></svg>