<svg version="1.1" id="icon" xmlns="http://www.w3.org/2000/svg" xmlns:xlink="http://www.w3.org/1999/xlink" x="0" y="0" viewBox="0 0 93.56 122.59" style="enable-background:new 0 0 93.56 122.59" xml:space="preserve"><style>.st0{clip-path:url(#SVGID_2_)}.st0,.st1{fill:#fff}.st2,.st3{clip-path:url(#SVGID_3_);fill:#fff}.st3{clip-path:url(#SVGID_4_)}</style><defs><path id="SVGID_23_" d="M0 0h93.56v122.59H0z"/></defs><clipPath id="SVGID_2_"><use xlink:href="#SVGID_23_" style="overflow:visible"/></clipPath><path class="st0" d="m89.22 73.53-5 9.06-4.83-9.06h-4.53c.84 1.53 6.77 12.68 6.77 12.68v7.35h4.86v-7.32s6.16-11.17 7.03-12.71h-4.3zM36.86 74.65c-1.38-.96-3.7-1.47-6.72-1.47-2.95 0-5.09.41-6.74 1.47-1.71 1.11-2.52 2.96-2.52 5.87v6.31c0 2.91.84 4.87 2.51 5.85 1.35.94 3.55 1.38 6.76 1.38 3.16 0 5.42-.45 6.71-1.36 1.67-1.04 2.55-3.06 2.55-5.88v-6.31c-.01-2.75-.87-4.73-2.55-5.86m-2 11.9c0 3.55-1.24 4.37-4.72 4.37-3.49 0-4.73-.81-4.73-4.37v-6c0-3.47 1.24-4.21 4.73-4.21 3.48 0 4.72.75 4.72 4.21v6zM10.03 73.53H0v20.02h10.73c5.29 0 7.26-2.15 7.26-7.96v-4.4c0-5.51-2.23-7.66-7.96-7.66m3.48 12.55c0 3.51-1.87 4.39-3.44 4.39H4.52v-14h5.54c1.57 0 3.44.88 3.44 4.15v5.46z"/><path class="st1" d="M47.23 73.53h-4.52v20.03h12.87v-3.33h-8.35z"/><g><defs><path id="SVGID_22_" d="M0 0h93.56v122.59H0z"/></defs><clipPath id="SVGID_3_"><use xlink:href="#SVGID_22_" style="overflow:visible"/></clipPath><path class="st2" d="M66.66 90.65h-4.08V76.4h4.45c1.5 0 2.44 1.2 2.44 2.83 0 2.51-1.21 2.58-4.68 2.7v2.32c3.09-.01 5.58-.2 5.58 3.01 0 1.61-1.03 3.39-3.71 3.39m2.4-7.69c3.56-.33 4.32-2.06 4.32-4.57 0-2.21-.94-3.33-1.96-3.96-.86-.54-1.87-.9-4-.9h-9.37v20.03h9.49c2.92 0 4.13-.57 4.69-.96.96-.65 2.22-2.08 2.22-4.35.01-2.7-.92-5.39-5.39-5.29M82.55 56.51h-10.7c-11.08 0-20.33-10.79-20.33-24.15 0-12.97 9.25-23.96 20.33-23.96h10.7v48.11zm-60.86 0H11.04V8.4h10.65c11.08 0 20.33 10.99 20.33 23.96 0 13.36-9.25 24.15-20.33 24.15M0 64.92h93.56V0H0v64.92zM5.22 115.19h7.22l-2.55-7.46c-.47-1.42-.71-2.22-1.03-3.25H8.8c-.33 1.04-.56 1.83-1.04 3.25l-2.54 7.46zm7.96 2.11h-8.7l-1.69 4.94H.01l7.13-20.06h3.37l7.16 20.06H14.9l-1.72-4.94z"/></g><path class="st1" d="M17 102.17v2.1h5.95v17.97h2.7v-17.97h5.94v-2.1z"/><g><defs><path id="SVGID_1_" d="M0 0h93.56v122.59H0z"/></defs><clipPath id="SVGID_4_"><use xlink:href="#SVGID_1_" style="overflow:visible"/></clipPath><path class="st3" d="M50.99 102.17h3.46v20.07h-2.66v-5.62c0-3.53.15-7.67.18-11.19h-.09c-.74 1.69-1.27 2.99-2.07 4.56l-4.08 8.05h-2.04l-4.08-8.05c-.8-1.57-1.33-2.87-2.07-4.56h-.09c.03 3.52.18 7.66.18 11.19v5.62h-2.66v-20.07h3.46l6.24 12.25h.09l6.23-12.25zM67.36 120.37c4.5 0 5.74-2.63 5.74-8.17 0-5.53-1.25-8.17-5.74-8.17-4.5 0-5.74 2.63-5.74 8.17s1.25 8.17 5.74 8.17m0 2.22c-6.69 0-8.55-3.91-8.55-10.39s1.86-10.39 8.55-10.39 8.55 3.91 8.55 10.39c.01 6.48-1.86 10.39-8.55 10.39M90.69 116.67c0-3.2-2.16-3.43-5.03-3.52-3.49-.12-6.3-1.27-6.3-5.62 0-4.5 3.73-5.71 7.64-5.71.98 0 3.34.08 5 .68v2.22c-1.89-.62-3.79-.68-5.06-.68-3.02 0-4.73 1.15-4.73 3.29 0 3.05 2.16 2.99 4.88 3.16 3.26.21 6.45 1.04 6.45 5.89s-4.11 6.22-8.17 6.22c-.98 0-4.11-.12-5.83-.83v-2.34c1.92.71 4.62.83 5.89.83 3.78-.01 5.26-1.46 5.26-3.59"/></g></svg>