<?xml version="1.0" encoding="utf-8"?>
<!-- Generator: Adobe Illustrator 25.4.1, SVG Export Plug-In . SVG Version: 6.00 Build 0)  -->
<svg version="1.1" id="圖層_1" xmlns="http://www.w3.org/2000/svg" xmlns:xlink="http://www.w3.org/1999/xlink" x="0px" y="0px"
	 viewBox="0 0 106.89 106.89" style="enable-background:new 0 0 106.89 106.89;" xml:space="preserve">
<style type="text/css">
	.st0{opacity:0.3;}
	.st1{fill:#040000;}
	.st2{fill:#FFFFFF;}
</style>
<g class="st0">
	<g>
		<path class="st1" d="M92.32,9.72H14.58c-2.68,0-4.86,2.18-4.86,4.86v77.74c0,2.68,2.18,4.86,4.86,4.86h77.74
			c2.68,0,4.86-2.18,4.86-4.86V14.58C97.17,11.9,94.99,9.72,92.32,9.72z"/>
	</g>
</g>
<g>
	<g>
		<path class="st2" d="M92.32,0H14.58C6.54,0,0,6.54,0,14.58v77.74c0,8.04,6.54,14.58,14.58,14.58h77.74
			c8.04,0,14.58-6.54,14.58-14.58V14.58C106.89,6.54,100.35,0,92.32,0z M97.17,92.32c0,2.68-2.18,4.86-4.86,4.86H14.58
			c-2.68,0-4.86-2.18-4.86-4.86V14.58c0-2.68,2.18-4.86,4.86-4.86h77.74c2.68,0,4.86,2.18,4.86,4.86V92.32z M38.87,75.31h9.72V31.58
			h-9.72V75.31z M58.3,75.31h9.72V31.58H58.3V75.31z"/>
	</g>
</g>
</svg>
