<?xml version="1.0" encoding="utf-8"?>
<!-- Generator: Adobe Illustrator 25.4.1, SVG Export Plug-In . SVG Version: 6.00 Build 0)  -->
<svg version="1.1" id="圖層_1" xmlns="http://www.w3.org/2000/svg" xmlns:xlink="http://www.w3.org/1999/xlink" x="0px" y="0px"
	 viewBox="0 0 106.89 106.89" style="enable-background:new 0 0 106.89 106.89;" xml:space="preserve">
<style type="text/css">
	.st0{opacity:0.3;}
	.st1{fill:#040000;}
	.st2{fill:#FFFFFF;}
</style>
<g class="st0">
	<g>
		<path class="st1" d="M92.32,9.72H14.58c-2.68,0-4.86,2.18-4.86,4.86v77.74c0,2.68,2.18,4.86,4.86,4.86h77.74
			c2.68,0,4.86-2.18,4.86-4.86V14.58C97.17,11.9,94.99,9.72,92.32,9.72z"/>
	</g>
</g>
<g>
	<g>
		<path class="st2" d="M92.31-0.01H14.58C6.54-0.01,0,6.53,0,14.57v77.74c0,8.04,6.54,14.58,14.58,14.58h77.74
			c8.04,0,14.58-6.54,14.58-14.58V14.57C106.89,6.53,100.35-0.01,92.31-0.01z M97.17,92.31c0,2.68-2.18,4.86-4.86,4.86H14.58
			c-2.68,0-4.86-2.18-4.86-4.86V14.57c0-2.68,2.18-4.86,4.86-4.86h77.74c2.68,0,4.86,2.18,4.86,4.86V92.31z"/>
	</g>
</g>
<path class="st2" d="M52.66,69.77c2.17-1.69,5.72-4.47,7.89-6.17l9.07-7.09c2.17-1.69,2.17-4.47,0-6.16l-9.06-7.09
	c-2.17-1.69-5.73-4.47-7.89-6.17l-9.07-7.09c-2.17-1.69-3.95-0.7-3.95,2.22v15.88c0,2.92,0,7.7,0,10.62v15.89
	c0,2.92,1.78,3.92,3.95,2.22L52.66,69.77z"/>
</svg>
