<?xml version="1.0" encoding="utf-8"?>
<!-- Generator: Adobe Illustrator 25.1.0, SVG Export Plug-In . SVG Version: 6.00 Build 0)  -->
<svg version="1.1" id="圖層_1" xmlns="http://www.w3.org/2000/svg" xmlns:xlink="http://www.w3.org/1999/xlink" x="0px" y="0px"
	 viewBox="0 0 144 144" style="enable-background:new 0 0 144 144;" xml:space="preserve">
<style type="text/css">
	.st0{fill:#BCBCBC;}
</style>
<g id="asus_gc_aurazone_static_btn_n">
	<path id="fill_n" class="st0" d="M69.65,54.93c-8.18,1.3-13.76,8.99-12.45,17.18c1.3,8.18,8.99,13.76,17.18,12.45
		c8.17-1.3,13.74-8.97,12.45-17.15c-1.29-8.18-8.97-13.77-17.15-12.48C69.67,54.93,69.66,54.93,69.65,54.93z M72,21.76
		c-26.51,0-48,21.49-48,48s21.49,48,48,48s48-21.49,48-48C119.97,43.26,98.5,21.79,72,21.76z M72,105.18
		c-19.56,0-35.42-15.86-35.42-35.42S52.44,34.34,72,34.34s35.42,15.86,35.42,35.42l0,0C107.4,89.31,91.55,105.16,72,105.18z"/>
</g>
</svg>
