<?xml version="1.0" encoding="utf-8"?>
<!-- Generator: Adobe Illustrator 25.1.0, SVG Export Plug-In . SVG Version: 6.00 Build 0)  -->
<svg version="1.1" id="圖層_1" xmlns="http://www.w3.org/2000/svg" xmlns:xlink="http://www.w3.org/1999/xlink" x="0px" y="0px"
	 viewBox="0 0 144 144" style="enable-background:new 0 0 144 144;" xml:space="preserve">
<style type="text/css">
	.st0{fill-rule:evenodd;clip-rule:evenodd;fill:#BCBCBC;}
	.st1{fill:#BCBCBC;}
</style>
<g id="asus_gc_aurazone_colorcycle_btn_n">
	<g id="fill_n">
		<path class="st0" d="M72,38.59V26c-26.51-0.02-48.02,21.45-48.04,47.96c0,4.82,0.72,9.62,2.14,14.22h13.43
			c-7.84-17.91,0.33-38.78,18.24-46.62C62.26,39.6,67.1,38.58,72,38.59z"/>
		<path class="st0" d="M118.49,62h-13.21c6.72,18.3-2.68,38.58-20.98,45.3c-3.25,1.19-6.65,1.9-10.1,2.1V122
			c26.48-1.2,46.98-23.64,45.78-50.12C119.83,68.54,119.33,65.23,118.49,62z"/>
		<circle class="st1" cx="72" cy="74" r="16.14"/>
	</g>
</g>
</svg>
