<?xml version="1.0" encoding="utf-8"?>
<!-- Generator: Adobe Illustrator 25.1.0, SVG Export Plug-In . SVG Version: 6.00 Build 0)  -->
<svg version="1.1" id="圖層_1" xmlns="http://www.w3.org/2000/svg" xmlns:xlink="http://www.w3.org/1999/xlink" x="0px" y="0px"
	 viewBox="0 0 144 144" style="enable-background:new 0 0 144 144;" xml:space="preserve">
<style type="text/css">
	.st0{fill:#BCBCBC;}
</style>
<g id="asus_gc_aurazone_rainbow_btn_n">
	<path id="fill_n" class="st0" d="M72.13,44.35c-30.11,0-54.87,25.17-54.87,56h12c0-24.16,19.28-43.92,42.88-43.92
		s43.11,19.76,43.11,43.92l11.5-0.09C126.74,69.43,102.24,44.35,72.13,44.35z M72.13,62.09c-20.56,0-36.88,17.21-36.88,38.26h12
		c0-14.38,10.83-26.18,24.88-26.18S97.24,86,97.24,100.35h12C109.24,79.3,92.69,62.09,72.13,62.09z M72.13,80.34
		c-10.72,0-18.88,9-18.88,20h12c0-4.31,2.67-7.92,6.88-7.92s7.12,3.61,7.12,7.92h12C91.24,89.37,82.86,80.34,72.13,80.34z"/>
</g>
</svg>
