<?xml version="1.0" encoding="utf-8"?>
<!-- Generator: Adobe Illustrator 25.1.0, SVG Export Plug-In . SVG Version: 6.00 Build 0)  -->
<svg version="1.1" id="圖層_1" xmlns="http://www.w3.org/2000/svg" xmlns:xlink="http://www.w3.org/1999/xlink" x="0px" y="0px"
	 viewBox="0 0 144 144" style="enable-background:new 0 0 144 144;" xml:space="preserve">
<style type="text/css">
	.st0{fill:none;}
	.st1{fill:#BCBCBC;}
</style>
<g id="Grid">
	<rect class="st0" width="144" height="144"/>
</g>
<g id="asus_gc_aurazone_starrynight_btn_n">
	<path id="fill_n" class="st1" d="M53.38,74.94L72,93.92l18.62-19L72,56L53.38,74.94z M72,79.18l-4.16-4.24L72,70.7l4.16,4.24
		L72,79.18z M84.65,36.61L72,23.71l-12.65,12.9L72,49.5L84.65,36.61z M90.51,96.61l12.65,12.89l12.65-12.89l-12.65-12.86
		L90.51,96.61z M41.08,83.75L28.44,96.64l12.64,12.89l12.65-12.89L41.08,83.75z M105.78,74.51c0,0.28,0,0.54,0,0.81l9.1,9.28
		c0.75-3.31,1.12-6.7,1.12-10.09c0.04-15.3-7.7-29.57-20.54-37.88L88,44.21C99,50.32,105.81,61.93,105.78,74.51z M72,109
		c-5.46-0.02-10.83-1.4-15.63-4l-7.47,7.61c14.14,9.03,32.25,9,46.35-0.09l-7.45-7.6C82.96,107.58,77.53,108.98,72,109z
		 M38.28,75.56c0-0.35-0.06-0.69-0.06-1C38.17,61.96,44.98,50.33,56,44.21l-7.43-7.58C35.72,44.94,27.97,59.21,28,74.51
		c0.01,3.46,0.42,6.92,1.21,10.29L38.28,75.56z"/>
</g>
</svg>
