<?xml version="1.0" encoding="utf-8"?>
<!-- Generator: Adobe Illustrator 25.0.0, SVG Export Plug-In . SVG Version: 6.00 Build 0)  -->
<svg version="1.1" id="expression" xmlns="http://www.w3.org/2000/svg" xmlns:xlink="http://www.w3.org/1999/xlink" x="0px" y="0px"
	 viewBox="0 0 47.6 954.2" style="enable-background:new 0 0 47.6 954.2;" xml:space="preserve">
<style type="text/css">
	.st0{fill:#FFFFFF;}
</style>
<g>
	<g>
		<path class="st0" d="M26.8,433.6c-2.5-5.3-8.9-14.4-8.9-14.4s-1.4,2.5-2.3,5.5c-1,3.2-1.5,6.2-1.1,7.7c0.8,3.4,8.2,7.1,11.4,8.3
			c0,0-2.1-5.1-2.9-6.7c-0.6-1.4-3.2-6.7-3.2-6.7l2.5,8.3c-0.3-0.1-5.3-2.3-5.8-5.1c-0.6-2.9,1.5-8,1.5-8.1
			c0.3,0.4,5.7,8.4,9.5,18.5c0.2,0.4,1.2,1,1.7,1C29.2,442,28.8,437.5,26.8,433.6z"/>
		<path class="st0" d="M21,420.9c1.8,2.5,9.2,11.3,11.2,19.7c0,0,0.7-4.4-1.2-10.7c-0.7-2.3-3.8-5.6-9.8-11.7
			c-0.5-0.8,1.2-3.8,2.1-5.5c0,0-4.5,2.8-5.8,3.8c-2.1,1.5-3.3,4.3-3.3,4.3s1.9-1.9,3.4-2.7C18.1,417.7,19,418.2,21,420.9z"/>
		<path class="st0" d="M24.3,408c0,0-3.6,1.4-4.2,2.3c-0.6,0.9-1.2,2.2-1.9,4.8c0,0,1.3-1.7,2.8-3.4C22.6,409.9,24.3,408,24.3,408z"
			/>
	</g>
	<path class="st0" d="M43.3,129.3H39l-5.8-11l-5.5,11.1l-4.2,0.1l8.1-16.2h3.4L43.3,129.3z"/>
	<path class="st0" d="M23.4,132.6l19.2,17v6.4L23.4,139V132.6z"/>
	<path class="st0" d="M23.4,382.4h4.3l5.8,11.1l5.6-11.1l4.2-0.1l-8.1,16.2h-3.4L23.4,382.4z"/>
	<polygon class="st0" points="29,154.7 29,161.5 39.4,161.5 39.4,165.1 27.2,165.1 27.2,156.4 	"/>
	<path class="st0" d="M37.6,170.5h-5.2l-3.4,2.9v3.7h8.6V170.5z M27.2,170.7l4.4-3.9h7.8v13c0,0.5-0.5,0.9-1,0.9H27.2V170.7z"/>
	<rect x="27.2" y="183.1" class="st0" width="12.2" height="3.7"/>
	<polygon class="st0" points="33.7,193.1 27.2,193.1 27.2,189.5 39.3,189.5 39.3,189.5 39.3,189.5 32.7,199.5 39.3,199.5 
		39.3,203.2 27.1,203.2 	"/>
	<polygon class="st0" points="37.6,218.3 27.2,218.3 27.2,214.6 37.6,214.6 37.6,210.3 39.4,208.5 39.4,224.3 37.6,222.5 	"/>
	<polygon class="st0" points="27.2,238.5 27.2,234.9 32.4,234.9 32.4,228.5 27.2,228.5 27.2,224.9 39.4,224.9 39.4,228.5 
		34.3,228.5 34.3,234.9 39.4,234.9 39.4,238.5 	"/>
	<polygon class="st0" points="27.2,254.1 27.2,240.4 39.4,240.4 39.4,254.1 37.6,252.3 37.6,244.1 34.3,244.1 34.3,253.3 
		32.4,253.3 32.4,244.1 29,244.1 29,252.3 	"/>
	<path class="st0" d="M27.2,270.4l7.5-6.6l0,6h2.4c0.1,0,0.5,0,0.5-0.3V263H27.2v-3.7h12.2v13.2c0,0.5-0.6,0.9-1.1,0.9h-5.9v-3.3
		l-5.2,4.6V270.4z"/>
	<polygon class="st0" points="27.2,289.6 27.2,275.9 39.4,275.9 39.4,289.6 37.6,287.7 37.6,279.5 34.3,279.5 34.3,288.8 
		32.4,288.8 32.4,279.5 29,279.5 29,287.7 	"/>
	<path class="st0" d="M32.9,294.2v6.2h4.2c0.6,0,0.6-0.3,0.6-0.3v-5.9H32.9z M27.2,294.2v-3.7h12.2v12.7c0,0.5-0.5,0.8-1,0.9h-7.4
		v-9.8H27.2z"/>
	<polygon class="st0" points="27.2,320 27.2,306.3 39.4,306.3 39.4,309.9 29,309.9 29,316.4 39.4,316.4 39.4,320 	"/>
	<path class="st0" d="M34.7,326v6.1h2.4c0,0,0.5,0,0.5-0.3V326H34.7z M27.2,322.4h12.2v11.5c0,0.6-0.4,0.9-1.1,0.9h-3.6v1.1h-7.5
		V322.4z M29,326v6.1h3.9V326H29z"/>
	<polygon class="st0" points="27.2,348.8 27.2,337.9 39.4,337.9 39.4,341.6 29,341.6 29,350.5 	"/>
	<rect x="27.2" y="352.1" class="st0" width="12.2" height="3.7"/>
	<polygon class="st0" points="27.2,370.5 27.2,358.5 39.4,358.5 39.4,372.3 37.6,370.4 37.6,362.2 29,362.2 29,372.3 	"/>
	<path class="st0" d="M4.9,62.2l11.5,10.3v3.9L4.9,66V62.2z"/>
	<path class="st0" d="M4.9,78.1l11.5,10.3v3.9L4.9,82V78.1z"/>
	<path class="st0" d="M4.9,94.1l11.5,10.3v3.9L4.9,97.9V94.1z"/>
	<path class="st0" d="M4.9,110.1l11.5,10.3v3.9L4.9,113.9V110.1z"/>
	<path class="st0" d="M27.3,77.4l11.5,10.3v3.9L27.3,81.2V77.4z"/>
	<path class="st0" d="M27.3,93.3l11.5,10.3v3.9L27.3,97.2V93.3z"/>
	<path class="st0" d="M4.9,126l11.5,10.3v3.9L4.9,129.9V126z"/>
	<path class="st0" d="M4.9,142l11.5,10.3v3.9L4.9,145.8V142z"/>
	<path class="st0" d="M4.9,158l11.5,10.3v3.9L4.9,161.8V158z"/>
	<path class="st0" d="M4.9,14.2l11.5,10.3v3.9L4.9,18.1V14.2z"/>
	<path class="st0" d="M4.9,30.2l11.5,10.3v3.9L4.9,34V30.2z"/>
	<path class="st0" d="M4.9,46.2l11.5,10.3v3.9L4.9,50V46.2z"/>
	<path class="st0" d="M4.9,174l11.5,10.3v3.9L4.9,177.8V174z"/>
	<path class="st0" d="M4.9,189.9l11.5,10.3v3.9L4.9,193.8V189.9z"/>
	<path class="st0" d="M4.9,205.9l11.5,10.3v3.9L4.9,209.7V205.9z"/>
	<path class="st0" d="M4.9,221.9l11.5,10.3v3.9L4.9,225.7V221.9z"/>
	<path class="st0" d="M4.9,237.8l11.5,10.3v3.9L4.9,241.7V237.8z"/>
	<path class="st0" d="M4.9,253.8l11.5,10.3v3.9L4.9,257.7V253.8z"/>
	<path class="st0" d="M4.9,269.8L16.4,280v3.9L4.9,273.6V269.8z"/>
	<path class="st0" d="M4.9,285.8L16.4,296v3.9L4.9,289.6V285.8z"/>
	<path class="st0" d="M4.9,301.7L16.4,312v3.9L4.9,305.6V301.7z"/>
	<path class="st0" d="M4.9,317.7L16.4,328v3.9L4.9,321.5V317.7z"/>
	<path class="st0" d="M4.9,333.7l11.5,10.3v3.9L4.9,337.5V333.7z"/>
	<path class="st0" d="M4.9,349.7l11.5,10.3v3.9L4.9,353.5V349.7z"/>
	<path class="st0" d="M4.9,365.6l11.5,10.3v3.9L4.9,369.5V365.6z"/>
	<path class="st0" d="M4.9,381.6l11.5,10.3v3.9L4.9,385.4V381.6z"/>
	<path class="st0" d="M43.2,512.4h-4.3l-5.8-11l-5.5,11.1l-4.2,0.1l8.1-16.2h3.4L43.2,512.4z"/>
	<path class="st0" d="M23.4,515.8l19.2,17v6.4l-19.2-17.1V515.8z"/>
	<path class="st0" d="M23.4,759.9h4.3l5.8,11.1l5.6-11.1l4.2-0.1L35.1,776h-3.4L23.4,759.9z"/>
	<path class="st0" d="M4.8,445.3l11.5,10.3v3.9L4.8,449.1V445.3z"/>
	<path class="st0" d="M4.8,461.3l11.5,10.3v3.9L4.8,465.1V461.3z"/>
	<path class="st0" d="M4.8,477.2l11.5,10.3v3.9L4.8,481.1V477.2z"/>
	<path class="st0" d="M4.8,493.2l11.5,10.3v3.9L4.8,497V493.2z"/>
	<path class="st0" d="M27.3,460.5l11.5,10.3v3.9l-11.5-10.3V460.5z"/>
	<path class="st0" d="M27.3,476.5l11.5,10.3v3.9l-11.5-10.3V476.5z"/>
	<path class="st0" d="M4.8,509.2l11.5,10.3v3.9L4.8,513V509.2z"/>
	<path class="st0" d="M4.8,525.1l11.5,10.3v3.9L4.8,529V525.1z"/>
	<path class="st0" d="M4.8,541.1l11.5,10.3v3.9L4.8,544.9V541.1z"/>
	<path class="st0" d="M4.8,557.1l11.5,10.3v3.9L4.8,560.9V557.1z"/>
	<path class="st0" d="M4.8,573.1l11.5,10.3v3.9L4.8,576.9V573.1z"/>
	<path class="st0" d="M4.8,589l11.5,10.3v3.9L4.8,592.9V589z"/>
	<path class="st0" d="M4.8,605l11.5,10.3v3.9L4.8,608.8V605z"/>
	<path class="st0" d="M4.8,621l11.5,10.3v3.9L4.8,624.8V621z"/>
	<path class="st0" d="M4.8,637l11.5,10.3v3.9L4.8,640.8V637z"/>
	<path class="st0" d="M4.8,652.9l11.5,10.3v3.9L4.8,656.8V652.9z"/>
	<path class="st0" d="M4.8,668.9l11.5,10.3v3.9L4.8,672.7V668.9z"/>
	<path class="st0" d="M4.8,684.9l11.5,10.3v3.9L4.8,688.7V684.9z"/>
	<path class="st0" d="M4.8,700.8l11.5,10.3v3.9L4.8,704.7V700.8z"/>
	<path class="st0" d="M4.8,716.8l11.5,10.3v3.9L4.8,720.6V716.8z"/>
	<path class="st0" d="M4.8,732.8L16.4,743v3.9L4.8,736.6V732.8z"/>
	<path class="st0" d="M4.8,748.8L16.4,759v3.9L4.8,752.6V748.8z"/>
	<path class="st0" d="M4.8,764.7L16.4,775v3.9L4.8,768.6V764.7z"/>
	<g>
		<path class="st0" d="M28.6,537.9v6.7h10.5v3.6H26.8v-8.7L28.6,537.9z"/>
		<path class="st0" d="M26.8,554.1l4.4-3.9h7.9v13.1c0,0.5-0.5,0.9-1,0.9H26.8V554.1z M37.3,553.9H32l-3.4,2.9v3.7h8.6V553.9z"/>
		<path class="st0" d="M26.8,569.9v-3.7h12.3v3.7H26.8z"/>
		<path class="st0" d="M33.3,577.1h-6.5v-3.6h12.1v0h0l-6.6,10h6.6v3.6H26.7L33.3,577.1z"/>
		<path class="st0" d="M37.3,602.3H26.8v-3.7h10.5v-4.3l1.8-1.8v15.9l-1.8-1.8V602.3z"/>
		<path class="st0" d="M26.8,621.6V618H32v-6.4h-5.2v-3.6h12.3v3.6h-5.2v6.4h5.2v3.7H26.8z"/>
		<path class="st0" d="M26.8,637.6v-13.8h12.4v13.8l-1.8-1.9v-8.3H34v9.4H32v-9.4h-3.4v8.3L26.8,637.6z"/>
		<path class="st0" d="M26.8,657.7l4.9-7.6l-4.9-7.6h12.3v3.7h-7l2.5,3.9l-2.5,3.9h7v3.7H26.8z"/>
		<path class="st0" d="M26.7,673.6v-3.7H32v-6.5h-5.2v-3.7H39v13.1c0,0.5-0.6,0.9-1.1,0.9H26.7z M33.8,663.4v6.4h2.8
			c0.1,0,0.6,0,0.6-0.3v-6.1H33.8z"/>
		<path class="st0" d="M26.8,687v-10.9h12.3v3.7H28.6v8.9L26.8,687z"/>
		<path class="st0" d="M26.8,703.1v-4l5.2-4.6v-1.7h-5.2v-3.6h12.2v3.6H34v1.8l5,4.4v4l-6-5.4L26.8,703.1z"/>
		<path class="st0" d="M26.8,717.8V704h12.4v13.8l-1.8-1.9v-8.3H34v9.4H32v-9.4h-3.4v8.3L26.8,717.8z"/>
		<path class="st0" d="M26.8,729.7l7.5-6.6l0,6h2.4c0.1,0,0.5,0,0.5-0.3v-6.5H26.8v-3.7h12.3v13.2c0,0.5-0.6,0.9-1.1,0.9h-5.9v-3.3
			l-5.2,4.6V729.7z"/>
		<path class="st0" d="M26.8,750.1v-12l1.9-2.3v10.5h3.4v-10.1h7v14l-1.8-1.6V740h-3.3v10.1H26.8z"/>
	</g>
	<g>
		<g>
			<path class="st0" d="M35.6,788.6l0.2,1.7l-18.9,5.2l8.5,4.9l-8.6,5l15.3,4.2l0,1.9L12.5,806l9.5-5.5l-9.5-5.4L35.6,788.6z"/>
		</g>
		<polygon class="st0" points="11.7,811.5 12.2,813.2 20.6,808.4 18.2,807.7 11.7,811.5 12.2,813.2 12.2,813.2 		"/>
		<polygon class="st0" points="34.4,800.4 15.8,790 15.8,791.9 30.9,800.4 20.9,806.4 23,807 		"/>
	</g>
	<path class="st0" d="M4.9,898.3l11.5,10.3v3.9L4.9,902.1V898.3z"/>
	<path class="st0" d="M4.9,818.5l11.5,10.3v3.9L4.9,822.3V818.5z"/>
	<path class="st0" d="M4.9,834.4l11.5,10.3v3.9L4.9,838.3V834.4z"/>
	<path class="st0" d="M4.9,850.4l11.5,10.3v3.9L4.9,854.2V850.4z"/>
	<path class="st0" d="M4.9,866.4l11.5,10.3v3.9L4.9,870.2V866.4z"/>
	<path class="st0" d="M4.9,882.3l11.5,10.3v3.9L4.9,886.2V882.3z"/>
	<path class="st0" d="M27.3,833.7l11.5,10.3v3.9l-11.5-10.3V833.7z"/>
	<path class="st0" d="M27.3,849.6l11.5,10.3v3.9l-11.5-10.3V849.6z"/>
	<path class="st0" d="M27.3,865.6l11.5,10.3v3.9l-11.5-10.3V865.6z"/>
	<path class="st0" d="M27.3,881.6l11.5,10.3v3.9l-11.5-10.3V881.6z"/>
	<path class="st0" d="M27.3,897.5l11.5,10.3v3.9l-11.5-10.3V897.5z"/>
	<path class="st0" d="M4.9,930.3l11.5,10.3v3.9L4.9,934.1V930.3z"/>
	<path class="st0" d="M4.9,914.3l11.5,10.3v3.9L4.9,918.1V914.3z"/>
	<path class="st0" d="M27.3,913.5l11.5,10.3v3.9l-11.5-10.3V913.5z"/>
	<path class="st0" d="M27.3,929.5l11.5,10.3v3.9l-11.5-10.3V929.5z"/>
	<polygon class="st0" points="27.3,29.4 38.9,39.7 38.9,43.6 27.3,33.3 	"/>
	<polygon class="st0" points="27.3,45.4 38.9,55.7 38.9,59.5 27.3,49.2 	"/>
	<polygon class="st0" points="27.3,61.4 38.9,71.6 38.9,75.5 27.3,65.2 	"/>
</g>
</svg>
